<?xml version="1.0" encoding="utf-8"?>
<!-- Generator: Adobe Illustrator 20.0.0, SVG Export Plug-In . SVG Version: 6.00 Build 0)  -->
<svg version="1.1" id="Layer_3" xmlns="http://www.w3.org/2000/svg" xmlns:xlink="http://www.w3.org/1999/xlink" x="0px" y="0px"
	 width="254.3px" height="140.5px" viewBox="0 0 254.3 140.5" style="enable-background:new 0 0 254.3 140.5;" xml:space="preserve"
	>
<style type="text/css">
	.st0{fill:#FFFFFF;}
</style>
<title>box</title>
<path class="st0" d="M136.7,41.6c-18.3,0-35.1,10-43.7,26.2C80.3,43.6,50.4,34.4,26.3,47.2c-2.3,1.2-4.4,2.6-6.5,4.1V9.7l0,0
	C19.6,4.2,15.1,0,9.6,0.1C4.4,0.3,0.2,4.5,0.1,9.7l0,0v1.6l0,0L0,91.6l0,0c0.4,27.3,22.8,49,50.1,48.6c18-0.3,34.4-10.3,42.9-26.2
	c12.8,24.1,42.7,33.3,66.7,20.5c24.1-12.8,33.3-42.7,20.5-66.7C171.6,51.7,154.9,41.6,136.7,41.6z M79,91.7L79,91.7
	c-0.1,3.9-1,7.7-2.6,11.2l0,0c-0.2,0.4-0.4,0.8-0.6,1.2l0,0c-0.2,0.4-0.4,0.8-0.6,1.2v0.1c-0.2,0.4-0.5,0.8-0.7,1.1v0.1
	c-0.2,0.4-0.5,0.7-0.7,1.1l-0.1,0.1c-0.2,0.3-0.5,0.7-0.8,1l-0.1,0.1c-0.3,0.3-0.5,0.7-0.8,1l-0.1,0.1c-0.3,0.3-0.5,0.6-0.8,0.9
	l-0.2,0.2c-0.3,0.3-0.5,0.6-0.8,0.8l-0.2,0.2c-0.3,0.3-0.5,0.5-0.8,0.8l-0.2,0.2l-0.8,0.7l-0.3,0.2l-0.8,0.6l-0.3,0.2l-0.8,0.6
	l-0.4,0.2l-0.8,0.5l-0.4,0.2l-0.8,0.4l-0.5,0.2l-0.8,0.4l-0.5,0.2l-0.8,0.3l-0.6,0.2l-0.8,0.3l-0.7,0.3l-0.8,0.2l-0.7,0.2l-0.7,0.2
	l-0.7,0.2l-0.7,0.2l-0.8,0.1l-0.7,0.1l-0.8,0.1l-0.6,0.1l-1,0.1h-0.5c-0.5,0-1,0-1.5,0c-0.5,0-1,0-1.5,0h-0.5l-1-0.1l-0.6-0.1
	l-0.8-0.1l-0.7-0.1l-0.7-0.2l-0.7-0.2l-0.7-0.2l-0.7-0.2l-0.7-0.2l-0.8-0.2l-0.6-0.2l-0.8-0.3l-0.6-0.2l-0.7-0.3l-0.5-0.2l-0.8-0.4
	l-0.5-0.2l-0.8-0.5l-0.4-0.2l-0.8-0.5l-0.4-0.2l-0.8-0.6l-0.3-0.2L31,114l-0.3-0.2l-0.8-0.7l-0.2-0.2c-0.3-0.2-0.5-0.5-0.8-0.8
	l-0.2-0.2c-0.3-0.3-0.5-0.6-0.8-0.8l-0.2-0.2c-0.3-0.3-0.5-0.6-0.8-0.9l-0.1-0.1c-0.3-0.3-0.5-0.6-0.8-1l-0.1-0.1
	c-0.3-0.3-0.5-0.7-0.8-1l-0.1-0.1c-0.2-0.4-0.5-0.7-0.7-1.1v-0.1c-0.2-0.4-0.5-0.8-0.7-1.1v-0.1c-0.2-0.4-0.4-0.8-0.6-1.2l0,0
	c-0.2-0.4-0.4-0.8-0.6-1.2l0,0c-0.2-0.4-0.4-0.9-0.5-1.3l0,0c-1.2-3.2-1.9-6.5-2-9.9l0,0c0-0.3,0-0.5,0-0.8
	c0-16.4,13.3-29.6,29.7-29.6s29.6,13.3,29.6,29.7C79,91.1,79,91.4,79,91.7z M166.2,91.8L166.2,91.8c-0.1,3.4-0.8,6.8-2,9.9l0,0
	c-0.2,0.4-0.4,0.9-0.5,1.3l0,0c-0.2,0.4-0.4,0.8-0.6,1.2l0,0c-0.2,0.4-0.4,0.8-0.6,1.2v0.1c-0.2,0.4-0.4,0.8-0.7,1.1l-0.1,0.1
	c-0.2,0.4-0.5,0.7-0.7,1.1l-0.1,0.1c-0.2,0.3-0.5,0.7-0.8,1l-0.1,0.1c-0.3,0.3-0.5,0.7-0.8,1l-0.1,0.1c-0.3,0.3-0.5,0.6-0.8,0.9
	l-0.2,0.2c-0.3,0.3-0.5,0.6-0.8,0.8l-0.2,0.2c-0.3,0.3-0.5,0.5-0.8,0.8l-0.2,0.2l-0.8,0.7l-0.3,0.2l-0.8,0.6l-0.3,0.2l-0.8,0.6
	l-0.4,0.2l-0.8,0.5l-0.4,0.2l-0.8,0.4l-0.5,0.2l-0.8,0.4l-0.5,0.2l-0.8,0.3l-0.6,0.2l-0.8,0.3l-0.6,0.2l-0.8,0.2l-0.7,0.2l-0.7,0.2
	l-0.7,0.2l-0.7,0.2l-0.8,0.1l-0.7,0.1l-0.9,0.1l-0.6,0.1l-1,0.1h-0.5c-0.5,0-1,0-1.5,0s-1,0-1.5,0h-0.5l-1-0.1l-0.6-0.1l-0.8-0.1
	l-0.7-0.1l-0.8-0.1l-0.7-0.2l-0.7-0.2l-0.7-0.2l-0.7-0.2l-0.8-0.2l-0.6-0.2l-0.8-0.3l-0.6-0.2l-0.8-0.4l-0.5-0.2l-0.8-0.4l-0.5-0.2
	l-0.8-0.5l-0.4-0.2l-0.8-0.5l-0.4-0.2l-0.8-0.6l-0.3-0.2l-0.8-0.6l-0.3-0.2l-0.8-0.7l-0.2-0.2c-0.3-0.2-0.6-0.5-0.8-0.8l-0.2-0.2
	c-0.3-0.3-0.6-0.6-0.8-0.8l-0.2-0.2c-0.3-0.3-0.5-0.6-0.8-0.9L114,110c-0.3-0.3-0.5-0.6-0.8-1l-0.1-0.1c-0.3-0.3-0.5-0.7-0.8-1
	l-0.1-0.1c-0.2-0.4-0.5-0.7-0.7-1.1v-0.1c-0.2-0.4-0.5-0.8-0.7-1.1v-0.1c-0.2-0.4-0.4-0.8-0.6-1.2l0,0c-0.2-0.4-0.4-0.8-0.6-1.2l0,0
	c-0.2-0.4-0.4-0.9-0.5-1.3l0,0c-1.2-3.2-1.9-6.5-2-9.9l0,0c0-0.3,0-0.5,0-0.8c0-16.4,13.3-29.6,29.7-29.6
	c16.4,0,29.6,13.3,29.6,29.7l0,0C166.2,91.2,166.2,91.5,166.2,91.8z M252.3,124.9c3.3,4.4,2.4,10.6-2,13.8c-4.4,3.3-10.6,2.4-13.8-2
	l0,0l-21.8-29.2l-21.9,29.1l0,0c-3.3,4.4-9.5,5.2-13.9,1.9c-4.4-3.3-5.2-9.5-1.9-13.9l0,0l0,0L202.4,91l-25.2-33.8l0,0
	c-1.8-2.5-2.3-5.6-1.4-8.5v-0.1c0.1-0.3,0.2-0.7,0.4-1v-0.1c0.2-0.4,0.3-0.7,0.6-1.1l0,0c0.2-0.3,0.4-0.6,0.6-0.9l0.2-0.2
	c0.2-0.2,0.4-0.4,0.6-0.6l0.2-0.2c3.9-3.8,10.1-3.7,13.9,0.2c0.3,0.3,0.5,0.5,0.7,0.8l0,0l21.9,29.2l21.9-29.2l0,0
	c3.3-4.3,9.5-5,13.8-1.7c0.3,0.2,0.6,0.5,0.8,0.7l0.2,0.2c0.2,0.2,0.4,0.4,0.6,0.6l0.2,0.2c0.2,0.3,0.4,0.6,0.6,0.9l0,0
	c0.2,0.3,0.4,0.7,0.6,1.1v0.1c0.1,0.3,0.3,0.7,0.4,1v0.1c0.9,2.9,0.3,6.1-1.5,8.5l0,0L227,91L252.3,124.9L252.3,124.9L252.3,124.9z"
	/>
</svg>
