<?xml version="1.0" encoding="utf-8"?>
<!-- Generator: Adobe Illustrator 20.0.0, SVG Export Plug-In . SVG Version: 6.00 Build 0)  -->
<svg version="1.1" id="Layer_1" xmlns="http://www.w3.org/2000/svg" xmlns:xlink="http://www.w3.org/1999/xlink" x="0px" y="0px"
	 width="255.4px" height="137.8px" viewBox="0 0 255.4 137.8" style="enable-background:new 0 0 255.4 137.8;" xml:space="preserve"
	>
<style type="text/css">
	.st0{fill:#FFFFFF;}
</style>
<title>excel</title>
<path class="st0" d="M80.2,14.3h49.6c5,0,9,4,9,9v93.1c0,4.5-3.7,8.2-8.2,8.2H80.3L80.2,14.3L80.2,14.3L80.2,14.3z M131.9,32.5V21.5
	H80.2v10.9h11.4v9.6H80.2v7.1h11.4v9.6H80.2V66h11.4v9.1H80.2v7.1h11.4v9.4H80.2v7.1h11.4v9.1H80.2v10.6h51.7v-10.6l0,0v-9.1l0,0
	v-7.1l0,0v-9.4l0,0v-7.1l0,0V66l0,0v-7.1l0,0v-9.6l0,0v-7.1l0,0L131.9,32.5L131.9,32.5L131.9,32.5z M121.6,107.8H98.8v-9.1h22.8
	L121.6,107.8L121.6,107.8z M121.6,91.6H98.8v-9.4h22.8L121.6,91.6L121.6,91.6z M121.6,75.1H98.8V66h22.8L121.6,75.1L121.6,75.1z
	 M121.6,58.8H98.8v-9.6h22.8L121.6,58.8L121.6,58.8z M121.6,42.1H98.8v-9.6h22.8L121.6,42.1L121.6,42.1z M0,14.8v108.8l80.2,14.3V0
	L0,14.8z M42.8,94.1L34.5,75l-7.4,17.3l-11.4-1.2l12.3-23.7L15.8,43h11.8l7,16.7l7.9-17.6h12.1L41.2,67.7l14.5,27.6L42.8,94.1z
	 M180.2,70.5H168v11.3h13.6v3.4H164V53.9h16.9v3.4H168v9.9h12.2L180.2,70.5L180.2,70.5L180.2,70.5z M188.6,62.7l3.2,4.8
	c0.8,1.3,1.5,2.4,2.3,3.7h0.1c0.8-1.4,1.5-2.5,2.2-3.7l3.2-4.8h4.4l-7.7,10.9l7.9,11.6h-4.6l-3.3-5c-0.9-1.3-1.6-2.6-2.4-3.9h-0.1
	c-0.8,1.4-1.5,2.6-2.4,3.9l-3.2,5h-4.5l8-11.5l-7.6-11L188.6,62.7L188.6,62.7z M223.5,84.3c-2,0.9-4.2,1.3-6.5,1.3
	c-6.8,0-11.2-4.6-11.2-11.5s4.7-11.9,12.1-11.9c1.9,0,3.9,0.4,5.7,1.2l-0.9,3.2c-1.4-0.7-3.1-1.1-4.7-1.1c-5.2,0-7.9,3.8-7.9,8.5
	c0,5.2,3.3,8.4,7.8,8.4c1.7,0,3.4-0.4,5-1.1L223.5,84.3z M230.3,74.7c0.1,5.6,3.7,7.8,7.7,7.8c2.1,0.1,4.3-0.3,6.2-1.2l0.7,2.9
	c-2.4,1-4.9,1.5-7.5,1.4c-6.9,0-11.1-4.6-11.1-11.3s4-12.1,10.6-12.1c7.3,0,9.3,6.5,9.3,10.6c0,0.6-0.1,1.3-0.1,1.9L230.3,74.7
	L230.3,74.7L230.3,74.7z M242.3,71.7c0-2.6-1.1-6.6-5.7-6.6c-4.1,0-5.9,3.8-6.3,6.6H242.3z M251.3,52.2h4.1v33h-4.1V52.2z"/>
</svg>
