<?xml version="1.0" encoding="utf-8"?>
<!-- Generator: Adobe Illustrator 21.0.2, SVG Export Plug-In . SVG Version: 6.00 Build 0)  -->
<svg version="1.1" id="Layer_1" xmlns="http://www.w3.org/2000/svg" xmlns:xlink="http://www.w3.org/1999/xlink" x="0px" y="0px"
	 viewBox="0 0 250 48.407" style="enable-background:new 0 0 250 48.407;" xml:space="preserve">
<style type="text/css">
	.st0{fill:#4767AB;}
	.st1{fill:none;}
	.st2{fill:#FFFFFF;}
</style>
<rect x="-388.146" y="-75.362" class="st1" width="486.292" height="171.138"/>
<rect x="-388.146" y="-75.362" class="st1" width="486.292" height="171.138"/>
<g>
	<path class="st2" d="M19.559,7.588c-2.944,0-3.794,1.308-3.794,4.187v4.775h7.85l-0.785,7.719h-7.065v23.419h-9.42V24.269H0V16.55
		h6.345v-4.644C6.345,4.121,9.485,0,18.251,0c1.897,0,4.121,0.131,5.495,0.327v7.261H19.559z"/>
	<path class="st2" d="M24.267,31.138c0-8.7,4.121-15.242,12.756-15.242c4.71,0,7.588,2.42,8.962,5.429V16.55h9.027v31.138h-9.027
		v-4.71c-1.308,3.009-4.252,5.364-8.962,5.364c-8.635,0-12.756-6.541-12.756-15.241V31.138z M33.687,33.231
		c0,4.644,1.701,7.719,6.084,7.719c3.859,0,5.822-2.813,5.822-7.261v-3.14c0-4.448-1.963-7.261-5.822-7.261
		c-4.383,0-6.084,3.074-6.084,7.719V33.231z"/>
	<path class="st2" d="M74.634,15.896c3.663,0,7.13,0.785,9.027,2.093l-2.093,6.672c-1.439-0.72-3.794-1.439-6.28-1.439
		c-5.102,0-7.326,2.944-7.326,7.981v1.832c0,5.037,2.224,7.981,7.326,7.981c2.486,0,4.841-0.719,6.28-1.439l2.093,6.672
		c-1.897,1.308-5.364,2.093-9.027,2.093c-11.055,0-16.092-5.952-16.092-15.503v-1.439C58.542,21.849,63.579,15.896,74.634,15.896z"
		/>
	<path class="st2" d="M84.903,33.296v-2.747c0-8.831,5.037-14.653,15.307-14.653c9.682,0,13.933,5.887,13.933,14.522v4.971H94.322
		c0.196,4.252,2.093,6.149,7.326,6.149c3.533,0,7.261-0.72,10.009-1.897l1.701,6.476c-2.486,1.309-7.588,2.29-12.102,2.29
		C89.351,48.407,84.903,42.454,84.903,33.296z M94.322,29.241h11.382v-0.785c0-3.401-1.374-6.084-5.495-6.084
		C95.958,22.372,94.322,25.054,94.322,29.241z"/>
	<path class="st2" d="M149.072,33.1c0,8.7-4.187,15.241-12.821,15.241c-4.71,0-7.981-2.355-9.289-5.364v4.71h-8.897V0.916l9.42-0.85
		v20.802c1.373-2.747,4.383-4.972,8.766-4.972c8.635,0,12.821,6.542,12.821,15.242V33.1z M139.653,30.941
		c0-4.383-1.701-7.654-6.215-7.654c-3.859,0-5.952,2.747-5.952,7.196v3.271c0,4.448,2.093,7.196,5.952,7.196
		c4.514,0,6.215-3.271,6.215-7.654V30.941z"/>
	<path class="st2" d="M152.21,32.904v-1.57c0-8.962,5.102-15.438,15.503-15.438c10.401,0,15.503,6.476,15.503,15.438v1.57
		c0,8.962-5.103,15.438-15.503,15.438C157.313,48.342,152.21,41.866,152.21,32.904z M173.797,30.68c0-4.121-1.701-7.392-6.084-7.392
		c-4.383,0-6.084,3.271-6.084,7.392v2.878c0,4.121,1.701,7.392,6.084,7.392c4.382,0,6.084-3.271,6.084-7.392V30.68z"/>
	<path class="st2" d="M186.354,32.904v-1.57c0-8.962,5.103-15.438,15.504-15.438c10.401,0,15.503,6.476,15.503,15.438v1.57
		c0,8.962-5.103,15.438-15.503,15.438C191.457,48.342,186.354,41.866,186.354,32.904z M207.941,30.68
		c0-4.121-1.701-7.392-6.084-7.392s-6.084,3.271-6.084,7.392v2.878c0,4.121,1.701,7.392,6.084,7.392s6.084-3.271,6.084-7.392V30.68z
		"/>
	<path class="st2" d="M230.31,31.399L239.6,16.55h10.009l-9.747,15.373L250,47.688h-10.008l-9.682-15.242v15.242h-9.42V0.916
		l9.42-0.85V31.399z"/>
</g>
<rect x="-118.146" y="-75.362" class="st1" width="486.292" height="171.138"/>
</svg>
