<?xml version="1.0" encoding="utf-8"?>
<!-- Generator: Adobe Illustrator 21.0.0, SVG Export Plug-In . SVG Version: 6.00 Build 0)  -->
<svg version="1.1" id="Layer_1" xmlns="http://www.w3.org/2000/svg" xmlns:xlink="http://www.w3.org/1999/xlink" x="0px" y="0px"
	 viewBox="0 0 250 183.4" style="enable-background:new 0 0 250 183.4;" xml:space="preserve">
<style type="text/css">
	.st0{fill:#013C81;}
	.st1{fill:#FFFFFF;}
	.st2{fill:#FFCD00;}
	.st3{fill:#231F20;}
	.st4{fill:#525349;}
	.st5{fill:#8B8B84;}
	.st6{fill:#B2BB1E;}
	.st7{fill:#797878;}
	.st8{fill:#F79635;}
	.st9{fill:#EC7408;}
	.st10{fill:#F57C00;}
	.st11{fill:#FFD14B;}
	.st12{fill:#FFC720;}
	.st13{fill:#0F9D59;}
	.st14{fill:#0A6E3D;}
	.st15{fill:#4284F4;}
	.st16{fill:#77777A;}
	.st17{fill:#3274EF;}
	.st18{fill:#3375EF;}
	.st19{fill:#F9B005;}
	.st20{fill:#E43327;}
	.st21{fill:#269A43;}
</style>
<g>
	<path class="st1" d="M26.1,159.9c-3,0-6,0-8.9,0c-0.7,0-1.4,0-2.1,0c-0.6,0-0.8,0.2-0.8,0.8c0,0.8,0,1.6,0,2.4
		c0,0.6,0.3,0.8,0.8,0.8c1.6,0,3.1,0,4.7,0c1.2,0,2.4-0.1,3.6,0.1c-0.2,2-0.9,3.7-2.4,5.1c-2.4,2.1-5.3,2.8-8.3,2.2
		c-5.7-1-9.2-6.3-8.1-12.1c1.3-6.8,9.1-10.2,15-6.6c0.6,0.4,1.1,1.3,1.8,1.1c0.6-0.2,1.1-1,1.6-1.5c0.1-0.1,0.2-0.3,0.4-0.4
		c0.5-0.4,0.4-0.8-0.1-1.2c-0.2-0.2-0.5-0.4-0.7-0.6c-3.5-2.6-7.4-3.3-11.6-2.3c-7.6,1.8-12.4,9.6-10.4,17.1c2,7.5,9.6,12,17.2,10.3
		c6.2-1.4,10.3-6.6,9.7-13.9C27.2,160,27.1,159.9,26.1,159.9z"/>
	<path class="st1" d="M85.4,158c-0.6-0.6-1.6-0.2-2.4-0.2c-0.3,0-0.7,0-1.1,0.1c-0.4,0.1-0.1,0.8-0.4,1c-0.3,0-0.5-0.2-0.6-0.3
		c-1.7-1.3-3.6-1.5-5.6-1.1c-3.9,0.8-7.4,4.7-7.1,9.4c0.2,3.5,1.9,6.1,5,7.7c2.9,1.5,5.7,1.3,8.4-0.9c0.2,0.8,0.1,1.4,0.1,2
		c-0.2,1.9-1,3.4-3,4c-2,0.6-3.8,0.3-5.2-1.3c-0.3-0.3-0.5-0.7-0.8-1.1c-0.2-0.4-0.5-0.5-0.9-0.3c-0.6,0.3-1.3,0.5-2,0.8
		c-0.9,0.4-1,0.5-0.5,1.3c1.8,3.3,5.5,5,9.3,4.3c3.5-0.6,5.6-2.6,6.5-6c0.3-1.2,0.4-2.4,0.4-3.6c0-4.4,0-8.9,0-13.3
		C85.5,159.5,85.9,158.5,85.4,158z M81.5,168.6c-0.7,1.6-1.9,2.8-3.8,3c-1.9,0.2-3.5-0.5-4.6-2.1c-1.5-2.1-1.3-5.3,0.5-7.1
		c1.3-1.4,3-2,4.8-1.4c1.9,0.6,2.9,2,3.4,3.9c0.1,0.4,0.1,0.9,0.1,1.1C81.9,167.1,81.9,167.9,81.5,168.6z"/>
	<path class="st1" d="M131.3,152.5c-0.3-0.7-0.3-1.6-0.9-2c-0.6-0.5-1.5-0.2-2.3-0.2c-1.2,0-1.2,0-1.7,1.2
		c-2.8,7.4-5.6,14.8-8.4,22.2c-0.1,0.3-0.4,0.6-0.2,1c0.1,0,0.2,0.1,0.3,0.1c0.6,0,1.2,0,1.7,0c1.5,0,1.3,0.1,1.8-1.2
		c0.6-1.5,1.1-3.1,1.7-4.6c0.2-0.5,0.4-0.8,1-0.8c2.9,0,5.8,0,8.7,0c0.7,0,0.9,0.3,1.1,0.9c0.3,1,0.7,2,1.1,3
		c0.3,0.9,0.4,2.2,1.1,2.6c0.9,0.5,2.1,0.2,3.2,0.1c0.1-0.4-0.1-0.7-0.2-1C136.6,166.6,134,159.5,131.3,152.5z M131.7,165.2
		c-2.1,0-4.2,0-6.2,0c-0.5,0-0.8-0.1-0.6-0.7c1.2-3.4,2.4-6.7,3.7-10.1c0.1,0,0.2,0,0.3,0c0.4,1.1,0.8,2.2,1.2,3.2
		c0.8,2.2,1.6,4.4,2.4,6.6C132.7,165.1,132.6,165.1,131.7,165.2z"/>
	<path class="st1" d="M57.4,157.2c-5.1,0-9,3.9-9,9.1c0,5.1,4,9,9.1,9c5.1,0,9.1-4,9.1-9.1C66.6,161.1,62.6,157.2,57.4,157.2z
		 M61.8,169.1c-1.1,1.9-3.2,2.9-5.3,2.5c-2-0.4-3.8-2.3-4-4.4c0-0.3,0-0.6-0.1-0.9c0-1.5,0.5-2.9,1.6-4c2.3-2.3,6.2-1.8,7.8,1.1
		C62.9,165.3,62.8,167.2,61.8,169.1z"/>
	<path class="st1" d="M37.7,157.2c-5.1,0-9,3.9-9,9.1c0,5.1,4,9,9.1,9c5.1,0,9.1-4,9.1-9C46.9,161.1,42.9,157.2,37.7,157.2z
		 M42.1,169c-1.1,2-3.2,3-5.4,2.6c-2-0.4-3.7-2.3-4-4.5c0-0.3,0-0.5,0-0.8c0-1.6,0.5-3,1.6-4.1c2.3-2.3,6.2-1.7,7.8,1.2
		C43.1,165.3,43.1,167.2,42.1,169z"/>
	<path class="st1" d="M108.9,160.4c-2.8-3.7-8-4.4-11.6-1.5c-2.3,1.9-3.3,4.4-3.3,7.4c0.1,3.8,1.8,6.6,5.2,8.1c3.6,1.6,7,1,9.9-1.6
		c1.6-1.4,1.6-1.5-0.2-2.7c-0.5-0.3-0.9-0.9-1.5-0.8c-0.5,0-0.7,0.7-1.1,1.1c-2.4,2.1-6.6,1.4-7.5-1.4c0.2-0.4,0.7-0.4,1-0.6
		c3.1-1.3,6.2-2.5,9.2-3.8c1.8-0.8,1.8-0.3,0.9-2.4C109.8,161.6,109.4,161,108.9,160.4z M105,163c-1.9,0.8-3.8,1.6-5.8,2.4
		c-0.3,0.1-0.6,0.4-1.1,0.2c-0.1-1.7,0.7-3.1,2-4c1.4-1,2.9-1.2,4.5-0.4c0.2,0.1,0.4,0.2,0.6,0.4C106.1,162.3,106.1,162.6,105,163z"
		/>
	<path class="st1" d="M173.8,164.3c-0.1-2.6-1.1-4.8-3.6-6c-2.4-1.2-4.9-1.2-7.4-0.2c-1.4,0.6-2.4,1.5-3.1,2.8
		c-0.2,0.4-0.2,0.6,0.2,0.8c0.6,0.2,1.2,0.5,1.8,0.8c0.4,0.2,0.6,0.1,0.9-0.3c1.1-1.7,2.7-2,4.6-1.8c2.2,0.3,3.6,2,3.4,4.2
		c-0.4,0-0.8-0.2-1.1-0.3c-2.8-0.8-5.6-0.8-8.1,0.8c-3.6,2.2-3.4,7.3,0.3,9.4c1.4,0.8,2.8,1,4.4,0.8c1.8-0.2,3.2-1.1,4.5-2.7
		c0.2,2.3,0.2,2.2,2.3,2.2c0.7,0,1-0.2,0.9-0.9C173.8,170.7,173.9,167.5,173.8,164.3z M170.7,168.4c-0.6,2.7-3.9,4.6-6.5,3.7
		c-1-0.4-1.8-0.9-2-2.1c-0.1-1.2,0.4-2.1,1.3-2.7c0.9-0.6,1.8-0.8,3.4-0.8c1,0,2,0.2,3.1,0.6C170.7,167.4,170.8,167.8,170.7,168.4z"
		/>
	<path class="st1" d="M156.3,163.6c-0.1-3.1-1.8-5.4-4.6-6c-2.4-0.5-4.6,0-6.4,1.7c-0.2,0.2-0.3,0.5-0.7,0.5c-0.1-1.8-0.1-1.8-2-1.8
		c-0.2,0-0.4,0-0.5,0c-0.5,0-0.6,0.2-0.6,0.6c0,0.3,0,0.6,0,0.9c0,4.4,0,8.7,0,13.1c0,2.4-0.4,2.1,2.1,2.1c1.1,0,1.1,0,1.1-1.1
		c0-2.6,0-5.2,0-7.9c0-1.3,0.2-2.5,1-3.5c1.1-1.6,2.9-2.2,4.8-1.7c1.6,0.4,2.5,1.7,2.6,3.6c0,0.5,0,1,0,1.5c0,2.3,0,4.6,0,6.9
		c0,2.4,0,2.4,2.4,2.2c0.6,0,0.8-0.2,0.8-0.8c0-0.8,0-1.7,0-2.5C156.3,168.8,156.4,166.2,156.3,163.6z"/>
	<path class="st1" d="M247.1,165.7c-1.1-0.5-2.2-0.7-3.3-1c-0.9-0.2-1.9-0.4-2.8-0.8c-1.4-0.7-1.5-2.1-0.2-3
		c1.4-1.1,4.3-0.8,5.6,0.5c0.9,1,0.9,1,2.1,0.4c0.4-0.2,0.8-0.3,1.2-0.7c-0.3-0.9-0.9-1.7-1.7-2.3c-2.6-2.1-7.3-2-9.8,0.2
		c-2.2,1.9-2.1,5,0.3,6.8c1,0.8,2.2,1.1,3.4,1.4c1.1,0.3,2.3,0.5,3.3,0.9c0.9,0.3,1.5,0.9,1.5,2c0,1-0.7,1.6-1.5,2
		c-2,0.8-4.3,0.1-5.6-1.6c-0.9-1.2-0.9-1.2-2.1-0.6c-0.2,0.1-0.3,0.1-0.5,0.2c-1,0.4-1,0.4-0.5,1.3c2.4,4.5,8.2,4.8,11.4,2.6
		c1.2-0.8,2-2,2.1-3.5C250.1,168.3,249.2,166.7,247.1,165.7z"/>
	<path class="st1" d="M196.5,158c-1.3,0-1.2-0.2-1.7,1.1c-1.3,3.2-2.5,6.3-3.8,9.5c-0.1,0.3-0.1,0.8-0.7,0.9
		c-0.2-0.4-0.4-0.9-0.6-1.3c-1.3-3.1-2.6-6.2-3.9-9.3c-0.2-0.4-0.2-0.9-0.9-0.9c-0.9,0-1.8-0.1-2.8,0.1c0,0.7,0.4,1.3,0.6,1.8
		c1.8,4.2,3.7,8.5,5.6,12.7c0.4,0.8,0.3,1.5,0,2.3c-1,2-1.9,4.1-2.9,6.2c-0.1,0.3-0.5,0.7-0.3,1.1c0.6,0.2,1.2,0,1.7,0.1
		c1,0.1,1.5-0.3,1.9-1.2c2.4-5.5,4.8-11,7.1-16.5c0.9-2.1,1.8-4.1,2.8-6.4C197.9,158,197.2,158,196.5,158z"/>
	<path class="st1" d="M232.9,169.7c-1-0.4-1-0.4-1.6,0.5c-1.7,2.4-4.9,2.9-7.2,1.2c-3.1-2.3-3.2-7.4-0.2-9.8c2.1-1.8,5.4-1.5,7,0.6
		c0.3,0.4,0.4,1.1,1,1.2c0.5,0,1-0.3,1.5-0.5c0.2-0.1,0.3-0.2,0.5-0.2c0.7-0.2,0.7-0.6,0.4-1.1c-1.5-2.7-3.8-4-7.2-4.1
		c-3.1,0.1-5.8,1.4-7.4,4.5c-1.4,2.6-1.5,5.4-0.3,8.1c2.4,5.8,10.4,7.1,14.3,2.3C234.9,170.7,234.9,170.5,232.9,169.7z"/>
	<path class="st1" d="M208.3,172.1c-1.5,0.1-2.3-0.6-2.4-2.2c0-0.4,0-0.7,0-1.1c0-2,0-3.9,0-5.9c0-2.1,0-2,2-2.1
		c2.3,0,2,0.5,2.1-2.2c0-0.6-0.2-0.8-0.8-0.8c-0.8,0-1.7,0-2.5,0c-0.6,0-0.8-0.2-0.8-0.8c0-0.7,0-1.3,0-2c0-2.6,0-2.5-2.5-2.4
		c-0.6,0-0.8,0.3-0.7,0.8c0,1.2,0,2.3,0,3.5c0,0.6-0.2,0.9-0.9,0.9c-0.4,0-0.7,0-1.1,0c-1,0-1,0-1,1.1c0,0.1,0,0.2,0,0.3
		c0,1.8-0.1,1.6,1.5,1.6c0.1,0,0.3,0,0.4,0c1,0,1,0,1,1c0,1.3,0,2.7,0,4.2c0.1,1.5-0.1,3.2,0.1,4.8c0.4,2.2,1.6,3.5,3.8,3.9
		c0.8,0.2,1.6,0.2,2.4,0.1c1.7-0.2,1.8-0.3,1.1-1.9C209.6,172,209.6,172,208.3,172.1z"/>
	<path class="st1" d="M92.2,149.7c0-0.3,0-0.5,0-0.8c0-0.5-0.2-0.7-0.7-0.7c-0.7,0-1.4,0-2.1,0c-1.1,0-1.2,0-1.2,1.2
		c0,4,0,8.1,0,12.1c0,3.6,0,7.1,0,10.7c0,0.8-0.4,1.9,0.2,2.4c0.5,0.5,1.5,0.2,2.3,0.2c1.6,0,1.4,0.1,1.4-1.5
		C92.2,165.4,92.2,157.6,92.2,149.7z"/>
	<path class="st1" d="M178.2,150.2c-1.1,0-1.1,0-1.1,1.1c0,3.7,0,7.5,0,11.2c0,3.5,0,6.9,0,10.4c0,2-0.3,1.8,1.8,1.8
		c1.6,0,1.4,0.1,1.4-1.5c0-7,0-14,0-21.1C180.3,149.9,180.7,150.3,178.2,150.2z"/>
	<path class="st1" d="M214.1,158c-1.2,0-1.2,0-1.2,1.2c0,4.5,0,9,0,13.5c0,2.4-0.4,2.1,2.1,2.1c1,0,1,0,1-1c0-2.4,0-4.8,0-7.2
		c0-2.2,0-4.4,0-6.7C216,157.7,216.3,158,214.1,158z"/>
	<path class="st1" d="M214.3,150c-1.2,0-2.2,1-2.2,2.2c0,1.2,1.1,2.3,2.3,2.3c1.2,0,2.2-1,2.2-2.2
		C216.6,150.9,215.6,149.9,214.3,150z"/>
	<path class="st1" d="M185.8,114.4V84v-0.7v-73V9.6c0-5.3-4.3-9.6-9.6-9.6h-22.6c-5.3,0-9.6,4.3-9.6,9.6v0.7v28.1h-32.2
		c-5.3,0-9.6,4.3-9.6,9.6V49v31.3H70c-5.3,0-9.6,4.3-9.6,9.6v0.9v23.6c0,5.3,4.3,9.6,9.6,9.6h32.2H144h32.2
		C181.5,124,185.8,119.7,185.8,114.4z"/>
</g>
</svg>
