<?xml version="1.0" encoding="utf-8"?>
<!-- Generator: Adobe Illustrator 21.0.0, SVG Export Plug-In . SVG Version: 6.00 Build 0)  -->
<svg version="1.1" id="Layer_1" xmlns="http://www.w3.org/2000/svg" xmlns:xlink="http://www.w3.org/1999/xlink" x="0px" y="0px"
	 viewBox="0 0 250 92.4" style="enable-background:new 0 0 250 92.4;" xml:space="preserve">
<style type="text/css">
	.st0{fill:#013C81;}
	.st1{fill:#FFFFFF;}
	.st2{fill:#FFCD00;}
	.st3{fill:#231F20;}
	.st4{fill:#525349;}
	.st5{fill:#8B8B84;}
	.st6{fill:#B2BB1E;}
	.st7{fill:#797878;}
	.st8{fill:#F79635;}
	.st9{fill:#EC7408;}
	.st10{fill:#F57C00;}
	.st11{fill:#FFD14B;}
	.st12{fill:#FFC720;}
	.st13{fill:#0F9D59;}
	.st14{fill:#0A6E3D;}
	.st15{fill:#4284F4;}
	.st16{fill:#77777A;}
	.st17{fill:#3274EF;}
	.st18{fill:#3375EF;}
	.st19{fill:#F9B005;}
	.st20{fill:#E43327;}
	.st21{fill:#269A43;}
	.st22{clip-path:url(#SVGID_2_);fill:url(#SVGID_3_);}
	.st23{clip-path:url(#SVGID_5_);fill:url(#SVGID_6_);}
	.st24{clip-path:url(#SVGID_8_);fill:url(#SVGID_9_);}
	.st25{clip-path:url(#SVGID_11_);fill:url(#SVGID_12_);}
	.st26{clip-path:url(#SVGID_14_);fill:url(#SVGID_15_);}
	.st27{clip-path:url(#SVGID_17_);fill:url(#SVGID_18_);}
	.st28{clip-path:url(#SVGID_20_);fill:url(#SVGID_21_);}
	.st29{clip-path:url(#SVGID_23_);}
	.st30{clip-path:url(#SVGID_27_);}
	.st31{clip-path:url(#SVGID_31_);}
	.st32{clip-path:url(#SVGID_35_);}
	.st33{clip-path:url(#SVGID_39_);}
	.st34{clip-path:url(#SVGID_43_);}
	.st35{clip-path:url(#SVGID_47_);}
	.st36{clip-path:url(#SVGID_51_);}
	.st37{clip-path:url(#SVGID_55_);}
	.st38{clip-path:url(#SVGID_59_);fill:url(#SVGID_60_);}
	.st39{fill:#545554;}
	.st40{clip-path:url(#SVGID_62_);fill:url(#SVGID_63_);}
	.st41{clip-path:url(#SVGID_65_);fill:url(#SVGID_66_);}
	.st42{clip-path:url(#SVGID_68_);fill:url(#SVGID_69_);}
	.st43{clip-path:url(#SVGID_71_);fill:url(#SVGID_72_);}
	.st44{clip-path:url(#SVGID_74_);fill:url(#SVGID_75_);}
	.st45{clip-path:url(#SVGID_77_);fill:url(#SVGID_78_);}
	.st46{clip-path:url(#SVGID_80_);fill:url(#SVGID_81_);}
	.st47{clip-path:url(#SVGID_83_);fill:url(#SVGID_84_);}
	.st48{clip-path:url(#SVGID_86_);fill:url(#SVGID_87_);}
	.st49{clip-path:url(#SVGID_89_);}
	.st50{clip-path:url(#SVGID_93_);fill:url(#SVGID_94_);}
	.st51{clip-path:url(#SVGID_96_);}
	.st52{clip-path:url(#SVGID_100_);fill:url(#SVGID_101_);}
	.st53{clip-path:url(#SVGID_103_);}
	.st54{clip-path:url(#SVGID_107_);}
	.st55{clip-path:url(#SVGID_111_);}
	.st56{clip-path:url(#SVGID_115_);}
	.st57{clip-path:url(#SVGID_119_);}
	.st58{clip-path:url(#SVGID_123_);}
	.st59{clip-path:url(#SVGID_127_);}
	.st60{clip-path:url(#SVGID_131_);}
	.st61{clip-path:url(#SVGID_135_);}
	.st62{clip-path:url(#SVGID_139_);}
	.st63{clip-path:url(#SVGID_143_);}
	.st64{clip-path:url(#SVGID_147_);}
	.st65{clip-path:url(#SVGID_151_);}
	.st66{clip-path:url(#SVGID_155_);}
	.st67{clip-path:url(#SVGID_159_);}
	.st68{clip-path:url(#SVGID_163_);}
	.st69{clip-path:url(#SVGID_167_);fill:url(#SVGID_168_);}
	.st70{clip-path:url(#SVGID_170_);fill:url(#SVGID_171_);}
	.st71{clip-path:url(#SVGID_173_);fill:url(#SVGID_174_);}
	.st72{clip-path:url(#SVGID_176_);fill:url(#SVGID_177_);}
	.st73{clip-path:url(#SVGID_179_);fill:url(#SVGID_180_);}
	.st74{clip-path:url(#SVGID_182_);fill:url(#SVGID_183_);}
	.st75{clip-path:url(#SVGID_185_);}
	.st76{clip-path:url(#SVGID_189_);fill:url(#SVGID_190_);}
	.st77{clip-path:url(#SVGID_192_);}
	.st78{clip-path:url(#SVGID_196_);}
	.st79{clip-path:url(#SVGID_200_);}
	.st80{clip-path:url(#SVGID_204_);}
	.st81{clip-path:url(#SVGID_208_);}
	.st82{clip-path:url(#SVGID_212_);}
	.st83{clip-path:url(#SVGID_216_);}
	.st84{clip-path:url(#SVGID_220_);}
	.st85{clip-path:url(#SVGID_224_);}
	.st86{clip-path:url(#SVGID_228_);}
	.st87{clip-path:url(#SVGID_232_);}
	.st88{clip-path:url(#SVGID_236_);}
	.st89{clip-path:url(#SVGID_240_);}
	.st90{clip-path:url(#SVGID_244_);}
	.st91{clip-path:url(#SVGID_248_);fill:url(#SVGID_249_);}
	.st92{clip-path:url(#SVGID_251_);}
	.st93{clip-path:url(#SVGID_255_);}
	.st94{clip-path:url(#SVGID_259_);}
	.st95{clip-path:url(#SVGID_263_);}
	.st96{clip-path:url(#SVGID_267_);}
	.st97{clip-path:url(#SVGID_271_);}
	.st98{clip-path:url(#SVGID_275_);}
	.st99{clip-path:url(#SVGID_279_);}
	.st100{clip-path:url(#SVGID_283_);}
	.st101{clip-path:url(#SVGID_287_);fill:url(#SVGID_288_);}
	.st102{clip-path:url(#SVGID_290_);fill:url(#SVGID_291_);}
	.st103{clip-path:url(#SVGID_293_);fill:url(#SVGID_294_);}
	.st104{clip-path:url(#SVGID_296_);fill:url(#SVGID_297_);}
	.st105{clip-path:url(#SVGID_299_);fill:url(#SVGID_300_);}
	.st106{clip-path:url(#SVGID_302_);fill:url(#SVGID_303_);}
	.st107{clip-path:url(#SVGID_305_);fill:url(#SVGID_306_);}
	.st108{clip-path:url(#SVGID_308_);fill:url(#SVGID_309_);}
	.st109{clip-path:url(#SVGID_311_);fill:url(#SVGID_312_);}
	.st110{clip-path:url(#SVGID_314_);}
	.st111{clip-path:url(#SVGID_318_);fill:url(#SVGID_319_);}
	.st112{clip-path:url(#SVGID_321_);fill:url(#SVGID_322_);}
	.st113{clip-path:url(#SVGID_324_);}
	.st114{clip-path:url(#SVGID_328_);fill:url(#SVGID_329_);}
	.st115{clip-path:url(#SVGID_331_);fill:url(#SVGID_332_);}
	.st116{clip-path:url(#SVGID_334_);fill:url(#SVGID_335_);}
	.st117{clip-path:url(#SVGID_337_);fill:url(#SVGID_338_);}
	.st118{clip-path:url(#SVGID_340_);fill:url(#SVGID_341_);}
	.st119{clip-path:url(#SVGID_343_);fill:url(#SVGID_344_);}
	.st120{clip-path:url(#SVGID_346_);fill:url(#SVGID_347_);}
	.st121{clip-path:url(#SVGID_349_);fill:url(#SVGID_350_);}
	.st122{clip-path:url(#SVGID_352_);fill:url(#SVGID_353_);}
	.st123{clip-path:url(#SVGID_355_);fill:url(#SVGID_356_);}
	.st124{clip-path:url(#SVGID_358_);fill:url(#SVGID_359_);}
	.st125{clip-path:url(#SVGID_361_);fill:url(#SVGID_362_);}
	.st126{clip-path:url(#SVGID_364_);fill:url(#SVGID_365_);}
	.st127{clip-path:url(#SVGID_367_);fill:url(#SVGID_368_);}
	.st128{clip-path:url(#SVGID_370_);fill:url(#SVGID_371_);}
	.st129{clip-path:url(#SVGID_373_);fill:url(#SVGID_374_);}
	.st130{clip-path:url(#SVGID_376_);fill:url(#SVGID_377_);}
	.st131{clip-path:url(#SVGID_379_);fill:url(#SVGID_380_);}
	.st132{clip-path:url(#SVGID_382_);fill:url(#SVGID_383_);}
	.st133{clip-path:url(#SVGID_385_);fill:url(#SVGID_386_);}
	.st134{clip-path:url(#SVGID_388_);fill:url(#SVGID_389_);}
	.st135{clip-path:url(#SVGID_391_);fill:url(#SVGID_392_);}
	.st136{clip-path:url(#SVGID_394_);fill:url(#SVGID_395_);}
	.st137{clip-path:url(#SVGID_397_);fill:url(#SVGID_398_);}
	.st138{clip-path:url(#SVGID_400_);}
	.st139{clip-path:url(#SVGID_404_);}
	.st140{clip-path:url(#SVGID_408_);}
	.st141{clip-path:url(#SVGID_412_);fill:url(#SVGID_413_);}
	.st142{clip-path:url(#SVGID_415_);fill:url(#SVGID_416_);}
	.st143{clip-path:url(#SVGID_418_);fill:url(#SVGID_419_);}
	.st144{clip-path:url(#SVGID_421_);fill:url(#SVGID_422_);}
	.st145{clip-path:url(#SVGID_424_);}
	.st146{clip-path:url(#SVGID_428_);fill:url(#SVGID_429_);}
	.st147{clip-path:url(#SVGID_431_);fill:url(#SVGID_432_);}
	.st148{clip-path:url(#SVGID_434_);}
	.st149{clip-path:url(#SVGID_438_);}
	.st150{clip-path:url(#SVGID_442_);fill:url(#SVGID_443_);}
	.st151{clip-path:url(#SVGID_445_);fill:url(#SVGID_446_);}
	.st152{clip-path:url(#SVGID_448_);fill:url(#SVGID_449_);}
	.st153{clip-path:url(#SVGID_451_);fill:url(#SVGID_452_);}
	.st154{clip-path:url(#SVGID_454_);}
	.st155{clip-path:url(#SVGID_458_);}
	.st156{clip-path:url(#SVGID_462_);}
	.st157{clip-path:url(#SVGID_466_);}
	.st158{clip-path:url(#SVGID_470_);}
	.st159{fill:#010101;}
	.st160{clip-path:url(#SVGID_474_);}
	.st161{clip-path:url(#SVGID_478_);}
</style>
<path class="st1" d="M26.2,41.1H8.7V23.2H0v44.9h8.7V49.4h17.6v18.7H35V23.2h-8.7V41.1L26.2,41.1z M93.7,60.8
	c-5.1,0-9.4-4.5-9.4-10.1s4.2-10.1,9.4-10.1c5,0,9.3,4.6,9.3,10S98.8,60.8,93.7,60.8L93.7,60.8z M94.2,33.1
	c-3.6-0.2-7.1,1.4-9.4,4.2v-15h-7.7v22.7c0,7.6,0.1,8.6,1.2,11.9c2.2,6.7,8.4,11.3,15.5,11.3c9.6,0,17-7.7,17-17.6
	C110.9,41,103.4,33.1,94.2,33.1L94.2,33.1L94.2,33.1z M164.6,61c-5.2,0-9.4-4.5-9.4-10.1s4.3-10.1,9.4-10.1c5.1,0,9.3,4.6,9.3,10.1
	S169.6,61,164.6,61L164.6,61L164.6,61L164.6,61z M164.7,33.3c-7.1,0-13.3,4.6-15.5,11.3c-1.1,3.3-1.2,4.2-1.2,11.9v22.7h7.6v-15
	c2.3,2.8,5.7,4.4,9.4,4.2c9.2,0,16.7-7.9,16.7-17.6C181.8,41,174.4,33.3,164.7,33.3L164.7,33.3L164.7,33.3z M130.8,40.9l-3.9-1.3
	c-2-0.5-3.3-2.3-3.4-4.3c0-2.7,2.3-4.5,5.7-4.5c2.6,0,4.3,0.8,6.6,3.1l0.9,0.9l5.7-5.9c-4.5-5.3-7.1-6.6-13.5-6.6
	c-8.2,0-14.2,5.7-14.2,13.5c0,6.1,3.4,10.5,9.9,12.7l3.3,1.1c4.8,1.7,6.1,2.9,6.1,5.6c0,3.1-2.5,5.1-6.1,5.1c-3.4,0-6-1.5-8.4-4.9
	l-5.7,6.2c4.6,5.8,7.6,7.3,14.3,7.3c8.5,0,14.6-5.9,14.6-13.9C142.8,48,139.2,43.7,130.8,40.9L130.8,40.9L130.8,40.9z M247,61
	c-5.1,0-6.7-1.3-6.7-5.8V42.3h7.6v-7.4h-7.6v-9.6l-7.6,4v25.9c0,9.6,3.7,13.7,12.1,13.7c1,0,1.5-0.1,3.1-0.1l2.1-8.1
	C249,60.9,248.1,61,247,61L247,61L247,61z M63,54c0,3.9-3.2,7-7,7h0h-0.3c-3.9,0-7-3.2-7-7l0,0l0,0V34.2h-8v20
	c0,7.8,6.3,14.1,14.1,14.1h2c7.8,0,14.1-6.3,14.1-14.1l0,0v-20H63V54L63,54L63,54z M213,31c-1.1-0.4-2.3-0.6-3.5-0.8v-9.8
	c4.3-1.2,6.8-5.6,5.6-9.9s-5.6-6.8-9.9-5.6c-4.3,1.2-6.8,5.6-5.6,9.9c0.7,2.4,2.5,4.4,4.8,5.3v10c-2.7,0.3-5.3,1.2-7.7,2.5
	l-27.4-20.6c1.8-4.5-0.3-9.6-4.8-11.5c-4.5-1.8-9.6,0.3-11.5,4.8c-1.8,4.5,0.3,9.6,4.8,11.5c2.7,1.1,5.9,0.8,8.3-0.9l26.4,19.8
	c-8.5,8-8.9,21.3-0.9,29.7c1.3,1.3,2.7,2.5,4.3,3.5l-6.6,10.4c-0.2,0-0.5,0-0.7,0c-3.6,0-6.5,2.9-6.5,6.4c0,3.6,2.9,6.5,6.4,6.5
	s6.5-2.9,6.5-6.4c0-1.4-0.5-2.8-1.3-3.9l6.7-10.7c11,3.8,23-2.1,26.8-13.1c3.8-11-2.1-23-13.1-26.8C213.9,31.3,213.5,31.2,213,31z
	 M157.8,6.3c-0.8,1.4-2,2.3-2.6,2c-0.6-0.4-0.4-1.8,0.4-3.2s2-2.3,2.6-2S158.6,4.9,157.8,6.3z M204.1,7.7c0.2-0.7,1.8-1.1,3.5-0.9
	c1.7,0.2,2.9,0.8,2.8,1.5c-0.2,0.7-1.8,1.1-3.5,0.9C205.1,9,203.9,8.3,204.1,7.7z M219.7,51.2c0,6.8-5.5,12.3-12.3,12.3
	c-6.8,0-12.3-5.5-12.3-12.3c0-6.8,5.5-12.3,12.3-12.3C214.2,38.9,219.7,44.4,219.7,51.2C219.7,51.2,219.7,51.2,219.7,51.2
	L219.7,51.2z M185.5,81.9c1.3-1.2,2.6-1.7,2.9-1.1c0.4,0.6-0.4,2-1.7,3.2c-1.3,1.2-2.6,1.7-2.9,1.1
	C183.5,84.5,184.3,83.1,185.5,81.9L185.5,81.9z"/>
</svg>
