<?xml version="1.0" encoding="utf-8"?>
<!-- Generator: Adobe Illustrator 20.0.0, SVG Export Plug-In . SVG Version: 6.00 Build 0)  -->
<svg version="1.1" id="Layer_1" xmlns="http://www.w3.org/2000/svg" xmlns:xlink="http://www.w3.org/1999/xlink" x="0px" y="0px"
	 width="255.5px" height="63.8px" viewBox="0 0 255.5 63.8" style="enable-background:new 0 0 255.5 63.8;" xml:space="preserve">
<style type="text/css">
	.st0{fill:#FFFFFF;}
</style>
<title>json</title>
<path class="st0" d="M30.5,1h19.1v33.5c0,7-0.6,12.4-1.9,16.1c-1.4,3.9-4,7.2-7.5,9.3c-3.8,2.6-8.6,3.8-14.5,3.8
	c-6.2,0-11.1-0.8-14.5-2.5c-3.3-1.6-6.1-4.2-7.9-7.4c-2-3.7-3.1-7.8-3.3-12l18.2-2.5c-0.1,2,0.2,4.1,0.7,6.1
	c0.4,1.3,1.2,2.4,2.3,3.2c0.9,0.6,2,0.9,3.1,0.8c1.9,0.1,3.7-0.8,4.7-2.4c1-1.6,1.5-4.3,1.5-8L30.5,1L30.5,1L30.5,1z M59,42.3
	l18.1-1.1c0.2,2.4,1,4.7,2.4,6.7c2,2.5,5.2,3.9,8.5,3.8c2.3,0.1,4.5-0.5,6.3-1.9c1.4-1.1,2.2-2.7,2.2-4.4c0-1.7-0.8-3.2-2.2-4.3
	c-1.4-1.3-4.7-2.5-9.8-3.6c-8.4-1.9-14.4-4.4-17.9-7.5c-3.5-2.9-5.5-7.3-5.4-11.9c0-3.2,1-6.3,2.8-9c2-3,4.9-5.3,8.3-6.7
	C76,0.8,81.1,0,87.5,0c7.9,0,13.9,1.5,18,4.4s6.6,7.6,7.4,14l-17.9,1c-0.5-2.8-1.5-4.8-3-6.1c-1.8-1.4-4.1-2-6.3-1.9
	c-1.8-0.1-3.5,0.4-5,1.4c-1.1,0.8-1.7,2.1-1.7,3.4c0,1,0.5,2,1.4,2.6c0.9,0.8,3,1.6,6.4,2.3c8.3,1.8,14.3,3.6,17.9,5.4
	c3.2,1.5,5.9,3.9,7.9,6.8c1.6,2.8,2.5,5.9,2.4,9.1c0,3.9-1.1,7.7-3.3,10.9c-2.2,3.4-5.4,6-9.2,7.6c-3.9,1.7-8.9,2.6-14.9,2.6
	c-10.5,0-17.8-2-21.8-6.1C61.8,53.6,59.4,48.1,59,42.3z M122.2,31.9c0-10.1,2.8-17.9,8.4-23.5C136.2,2.8,144,0,154,0
	c10.3,0,18.2,2.8,23.7,8.3c5.6,5.5,8.3,13.2,8.3,23.2c0,7.2-1.2,13.1-3.6,17.7c-2.4,4.6-6,8.3-10.5,10.8c-4.6,2.6-10.3,3.9-17.1,3.9
	c-7,0-12.7-1.1-17.3-3.3c-4.7-2.3-8.5-6-11.1-10.5C123.6,45.1,122.2,39.1,122.2,31.9L122.2,31.9z M141.2,32c0,6.2,1.2,10.7,3.5,13.4
	c2.4,2.7,5.8,4.2,9.4,4.1c4.1,0,7.3-1.3,9.5-4c2.2-2.7,3.4-7.5,3.3-14.4c0-5.8-1.2-10.1-3.5-12.7c-2.4-2.7-5.9-4.2-9.5-4
	c-3.5-0.1-7,1.4-9.3,4.1C142.4,21.2,141.2,25.7,141.2,32L141.2,32z M196.5,1h17.8l23.2,34.1V1h18v61.7h-18l-23.1-33.9v33.9h-17.9
	L196.5,1L196.5,1z"/>
</svg>
