<?xml version="1.0" encoding="UTF-8"?>
<svg width="139px" height="19px" viewBox="0 0 139 19" version="1.1" xmlns="http://www.w3.org/2000/svg" xmlns:xlink="http://www.w3.org/1999/xlink">
    <!-- Generator: Sketch 42 (36781) - http://www.bohemiancoding.com/sketch -->
    <title>hundreds-more</title>
    <desc>Created with Sketch.</desc>
    <defs></defs>
    <g id="Page-1" stroke="none" stroke-width="1" fill="none" fill-rule="evenodd">
        <path d="M4.92382812,10.5820312 L0.259765625,10.5820312 L0.259765625,8.49609375 L4.92382812,8.49609375 L4.92382812,3.71484375 L7.03320312,3.71484375 L7.03320312,8.49609375 L11.7089844,8.49609375 L11.7089844,10.5820312 L7.03320312,10.5820312 L7.03320312,15.3398438 L4.92382812,15.3398438 L4.92382812,10.5820312 Z M28.2089844,18 L25.4550781,18 L25.4550781,6.9375 C25.4550781,5.6171809 25.4863278,4.57031637 25.5488281,3.796875 C25.3691397,3.98437594 25.1484388,4.19140512 24.8867188,4.41796875 C24.6249987,4.64453238 23.7480543,5.3632752 22.2558594,6.57421875 L20.8730469,4.828125 L25.9121094,0.8671875 L28.2089844,0.8671875 L28.2089844,18 Z M45.4355469,9.43359375 C45.4355469,12.4101711 44.957036,14.6210865 44,16.0664062 C43.042964,17.511726 41.580088,18.234375 39.6113281,18.234375 C37.7050686,18.234375 36.2597705,17.4882887 35.2753906,15.9960938 C34.2910107,14.5038988 33.7988281,12.3164207 33.7988281,9.43359375 C33.7988281,6.41014113 34.277339,4.18164779 35.234375,2.74804688 C36.191411,1.31444596 37.6503808,0.59765625 39.6113281,0.59765625 C41.5254002,0.59765625 42.9746045,1.34764875 43.9589844,2.84765625 C44.9433643,4.34766375 45.4355469,6.5429543 45.4355469,9.43359375 Z M36.5878906,9.43359375 C36.5878906,11.7695429 36.8281226,13.437495 37.3085938,14.4375 C37.7890649,15.437505 38.5566354,15.9375 39.6113281,15.9375 C40.6660209,15.9375 41.4374976,15.4296926 41.9257812,14.4140625 C42.4140649,13.3984324 42.6582031,11.7382928 42.6582031,9.43359375 C42.6582031,7.13670727 42.4140649,5.47461451 41.9257812,4.44726562 C41.4374976,3.41991674 40.6660209,2.90625 39.6113281,2.90625 C38.5566354,2.90625 37.7890649,3.41015121 37.3085938,4.41796875 C36.8281226,5.42578629 36.5878906,7.09764457 36.5878906,9.43359375 Z M59.1347656,9.43359375 C59.1347656,12.4101711 58.6562548,14.6210865 57.6992188,16.0664062 C56.7421827,17.511726 55.2793067,18.234375 53.3105469,18.234375 C51.4042873,18.234375 49.9589893,17.4882887 48.9746094,15.9960938 C47.9902295,14.5038988 47.4980469,12.3164207 47.4980469,9.43359375 C47.4980469,6.41014113 47.9765577,4.18164779 48.9335938,2.74804688 C49.8906298,1.31444596 51.3495996,0.59765625 53.3105469,0.59765625 C55.2246189,0.59765625 56.6738232,1.34764875 57.6582031,2.84765625 C58.642583,4.34766375 59.1347656,6.5429543 59.1347656,9.43359375 Z M50.2871094,9.43359375 C50.2871094,11.7695429 50.5273413,13.437495 51.0078125,14.4375 C51.4882837,15.437505 52.2558541,15.9375 53.3105469,15.9375 C54.3652396,15.9375 55.1367163,15.4296926 55.625,14.4140625 C56.1132837,13.3984324 56.3574219,11.7382928 56.3574219,9.43359375 C56.3574219,7.13670727 56.1132837,5.47461451 55.625,4.44726562 C55.1367163,3.41991674 54.3652396,2.90625 53.3105469,2.90625 C52.2558541,2.90625 51.4882837,3.41015121 51.0078125,4.41796875 C50.5273413,5.42578629 50.2871094,7.09764457 50.2871094,9.43359375 Z M70.8417969,14.3085938 C70.8417969,15.5742251 70.380864,16.5449185 69.4589844,17.2207031 C68.5371048,17.8964878 67.2168055,18.234375 65.4980469,18.234375 C63.7714757,18.234375 62.3847709,17.9726589 61.3378906,17.4492188 L61.3378906,15.0703125 C62.8613357,15.773441 64.2792903,16.125 65.5917969,16.125 C67.2871179,16.125 68.1347656,15.6132864 68.1347656,14.5898438 C68.1347656,14.2617171 68.0410166,13.9882823 67.8535156,13.7695312 C67.6660147,13.5507802 67.357424,13.3242199 66.9277344,13.0898438 C66.4980447,12.8554676 65.9003945,12.5898452 65.1347656,12.2929688 C63.6425707,11.7148409 62.6328151,11.1367216 62.1054688,10.5585938 C61.5781224,9.98046586 61.3144531,9.23047336 61.3144531,8.30859375 C61.3144531,7.1992132 61.7617143,6.33789369 62.65625,5.72460937 C63.5507857,5.11132506 64.7675704,4.8046875 66.3066406,4.8046875 C67.8300857,4.8046875 69.2714776,5.11327816 70.6308594,5.73046875 L69.7402344,7.8046875 C68.3417899,7.22655961 67.1660204,6.9375 66.2128906,6.9375 C64.7597584,6.9375 64.0332031,7.35155836 64.0332031,8.1796875 C64.0332031,8.58593953 64.2226544,8.92968609 64.6015625,9.2109375 C64.9804706,9.49218891 65.8066343,9.87890379 67.0800781,10.3710938 C68.150396,10.7851583 68.927732,11.1640608 69.4121094,11.5078125 C69.8964868,11.8515642 70.2558582,12.2480446 70.4902344,12.6972656 C70.7246105,13.1464866 70.8417969,13.6835906 70.8417969,14.3085938 Z M90.9746094,18 L88.2089844,18 L88.2089844,10.0078125 C88.2089844,9.01562004 88.0214862,8.27539307 87.6464844,7.78710938 C87.2714825,7.29882568 86.6855509,7.0546875 85.8886719,7.0546875 C84.8261666,7.0546875 84.0468775,7.40038717 83.5507812,8.09179688 C83.054685,8.78320658 82.8066406,9.9335857 82.8066406,11.5429688 L82.8066406,18 L80.0527344,18 L80.0527344,5.0390625 L82.2089844,5.0390625 L82.5957031,6.73828125 L82.7363281,6.73828125 C83.0957049,6.12109066 83.6171841,5.64453293 84.3007812,5.30859375 C84.9843784,4.97265457 85.736324,4.8046875 86.5566406,4.8046875 C88.5488381,4.8046875 89.8691374,5.4843682 90.5175781,6.84375 L90.7050781,6.84375 C91.0878925,6.2031218 91.6269496,5.7031268 92.3222656,5.34375 C93.0175816,4.9843732 93.8144486,4.8046875 94.7128906,4.8046875 C96.2597734,4.8046875 97.3867152,5.19530859 98.09375,5.9765625 C98.8007848,6.75781641 99.1542969,7.94921074 99.1542969,9.55078125 L99.1542969,18 L96.4003906,18 L96.4003906,10.0078125 C96.4003906,9.01562004 96.2109394,8.27539307 95.8320312,7.78710938 C95.4531231,7.29882568 94.8652384,7.0546875 94.0683594,7.0546875 C92.9980415,7.0546875 92.2148462,7.38866854 91.71875,8.05664062 C91.2226538,8.72461271 90.9746094,9.74999309 90.9746094,11.1328125 L90.9746094,18 Z M114.494141,11.4960938 C114.494141,13.6132918 113.951177,15.2656191 112.865234,16.453125 C111.779291,17.6406309 110.267588,18.234375 108.330078,18.234375 C107.119135,18.234375 106.048833,17.9609402 105.119141,17.4140625 C104.189448,16.8671848 103.474612,16.0820364 102.974609,15.0585938 C102.474607,14.0351511 102.224609,12.847663 102.224609,11.4960938 C102.224609,9.39452074 102.763666,7.75391215 103.841797,6.57421875 C104.919927,5.39452535 106.439443,4.8046875 108.400391,4.8046875 C110.2754,4.8046875 111.75976,5.40819709 112.853516,6.61523437 C113.947271,7.82227166 114.494141,9.44920852 114.494141,11.4960938 Z M105.060547,11.4960938 C105.060547,14.4882962 106.166005,15.984375 108.376953,15.984375 C110.564464,15.984375 111.658203,14.4882962 111.658203,11.4960938 C111.658203,8.53514145 110.556652,7.0546875 108.353516,7.0546875 C107.19726,7.0546875 106.359378,7.43749617 105.839844,8.203125 C105.32031,8.96875383 105.060547,10.0663991 105.060547,11.4960938 Z M124.232422,4.8046875 C124.787112,4.8046875 125.244139,4.84374961 125.603516,4.921875 L125.333984,7.48828125 C124.943357,7.39453078 124.537111,7.34765625 124.115234,7.34765625 C123.013666,7.34765625 122.121097,7.70702766 121.4375,8.42578125 C120.753903,9.14453484 120.412109,10.0781193 120.412109,11.2265625 L120.412109,18 L117.658203,18 L117.658203,5.0390625 L119.814453,5.0390625 L120.177734,7.32421875 L120.318359,7.32421875 C120.748049,6.55077738 121.30859,5.93750227 122,5.484375 C122.69141,5.03124773 123.435543,4.8046875 124.232422,4.8046875 Z M133.666016,18.234375 C131.650381,18.234375 130.074224,17.6464903 128.9375,16.4707031 C127.800776,15.294916 127.232422,13.6757916 127.232422,11.6132812 C127.232422,9.49608316 127.75976,7.8320373 128.814453,6.62109375 C129.869146,5.4101502 131.31835,4.8046875 133.162109,4.8046875 C134.873055,4.8046875 136.224604,5.32421355 137.216797,6.36328125 C138.208989,7.40234895 138.705078,8.83202215 138.705078,10.6523438 L138.705078,12.140625 L130.068359,12.140625 C130.107422,13.3984438 130.447262,14.365231 131.087891,15.0410156 C131.728519,15.7168003 132.630854,16.0546875 133.794922,16.0546875 C134.560551,16.0546875 135.273434,15.9824226 135.933594,15.8378906 C136.593753,15.6933587 137.302731,15.4531267 138.060547,15.1171875 L138.060547,17.3554688 C137.388669,17.6757829 136.708988,17.9023431 136.021484,18.0351562 C135.333981,18.1679694 134.548833,18.234375 133.666016,18.234375 Z M133.162109,6.890625 C132.287105,6.890625 131.58594,7.16796598 131.058594,7.72265625 C130.531247,8.27734652 130.216797,9.08593219 130.115234,10.1484375 L135.998047,10.1484375 C135.982422,9.07811965 135.724612,8.26758088 135.224609,7.71679688 C134.724607,7.16601287 134.037114,6.890625 133.162109,6.890625 Z" id="hundreds-more" fill="#FFFFFF"></path>
    </g>
</svg>