<?xml version="1.0" encoding="utf-8"?>
<!-- Generator: Adobe Illustrator 20.0.0, SVG Export Plug-In . SVG Version: 6.00 Build 0)  -->
<svg version="1.1" id="Layer_1" xmlns="http://www.w3.org/2000/svg" xmlns:xlink="http://www.w3.org/1999/xlink" x="0px" y="0px"
	 width="255.6px" height="132.7px" viewBox="0 0 255.6 132.7" style="enable-background:new 0 0 255.6 132.7;" xml:space="preserve"
	>
<style type="text/css">
	.st0{fill:#FFFFFF;}
</style>
<title>my-sql</title>
<path class="st0" d="M0,120.9V87.5c0-3.2,1.3-4.8,4-5.6c6.5-1.9,10.8-0.3,12.7,4.1l12.5,28.8l12.9-28.8c2-4.4,6.2-6,12.7-4.1
	c2.7,0.8,4,2.4,4,5.6v33.4h-8.5V87.5l-13.1,29.1c-1.6,3.5-3.6,4.8-7.7,4.8s-6.3-1.3-7.8-4.8L8.4,87.5v33.4H0z M65.7,93.7
	c0.2,0.1,0,18.6,0,19c0.1,4.2,5.4,7.9,13.8,8h18v2.2c0,0.9,0.7,3.6-4.8,4.2H65.9v5.6h26.7c4.3-0.1,13.4-1.7,13.4-9.1v-30h-8.4v21.8
	c-0.1,0-16,0.1-18.4,0c-4.6-0.1-5-2.4-4.9-3.4V93.7H65.7L65.7,93.7z M248.1,72.4c-5.2-0.1-9.2,0.4-12.6,1.8c-1,0.4-2.5,0.4-2.7,1.6
	c0.4,0.7,0.7,1.4,1,2.1c0.9,1.5,2,2.9,3.4,4c1.4,1,2.7,2.1,4.1,3c2.5,1.6,5.4,2.5,7.9,4c1.4,0.9,2.9,2.1,4.3,3.1
	c0.7,0.5,1.2,1.4,2.1,1.7v-0.2c-0.4-0.6-0.6-1.4-1-2.1c-0.6-0.6-1.3-1.2-1.9-1.9c-1.9-2.5-4.2-4.7-6.8-6.6c-2.1-1.4-6.6-3.4-7.5-5.8
	l-0.1-0.1c1.5-0.2,3-0.5,4.5-1c2.2-0.6,4.2-0.4,6.5-1c1-0.3,2.1-0.6,3.1-0.9v-0.6c-1.2-1.2-2-2.7-3.2-3.8c-3.4-2.9-6.9-5.6-10.7-8
	c-2-1.3-4.6-2.1-6.8-3.2c-0.8-0.4-2.1-0.6-2.5-1.2c-1.1-1.6-2-3.2-2.7-5c-1.9-3.6-3.7-7.5-5.3-11.3c-1.2-2.5-1.9-5.1-3.3-7.4
	c-6.7-11-14-17.7-25.1-24.3c-2.4-1.4-5.3-2-8.3-2.7c-1.6-0.1-3.2-0.2-4.9-0.3c-1-0.5-2.1-1.7-3-2.3c-3.7-2.3-13.2-7.4-16-0.7
	c-1.8,4.2,2.6,8.4,4.1,10.5c1.3,1.5,2.4,3.1,3.3,4.9c0.4,1.1,0.6,2.3,1,3.4c0.9,3,2.1,5.9,3.4,8.7c0.7,1.4,1.5,2.7,2.4,4
	c0.5,0.7,1.4,1,1.6,2.2c-0.9,1.3-1,3.2-1.5,4.9c-2.3,7.3-1.4,16.4,1.9,21.8c1,1.6,3.5,5.2,6.8,3.8c2.9-1.2,2.3-4.9,3.1-8.1
	c0-0.6,0.2-1.3,0.4-1.8v0.1c0.9,1.8,1.8,3.6,2.7,5.4c2.3,3.3,5.2,6.3,8.4,8.7c1.6,1.2,2.8,3.2,4.7,3.9v-0.2h0
	c-0.4-0.5-0.9-0.9-1.5-1.3c-1.2-1.2-2.4-2.5-3.4-3.9c-2.7-3.7-5.2-7.7-7.3-11.8c-1-2-1.9-4.2-2.8-6.2c-0.4-0.8-0.4-1.9-1-2.3
	c-1,1.4-2.4,2.7-3.1,4.4c-1.2,2.8-1.4,6.2-1.8,9.8c-0.3,0.1-0.1,0-0.3,0.1c-2.1-0.5-2.8-2.7-3.6-4.5c-1.9-4.6-2.3-12-0.6-17.3
	c0.4-1.4,2.4-5.7,1.6-6.9c-0.4-1.2-1.7-1.9-2.4-2.9c-0.9-1.3-1.7-2.7-2.3-4.2c-1.6-3.6-2.3-7.7-4-11.3c-0.9-1.8-2-3.4-3.2-5
	c-1.2-1.8-2.6-3-3.6-5.1c-0.3-0.7-0.8-1.9-0.3-2.7c0.1-0.5,0.4-0.8,0.9-0.8c0.8-0.7,3.2,0.2,4.1,0.6c2.3,0.8,4.4,1.9,6.4,3.2
	c0.9,0.7,1.9,1.9,3,2.2h1.4c2.1,0.4,4.4,0.1,6.4,0.7c3.3,1.1,6.4,2.6,9.4,4.5c8.6,5.5,15.6,13.1,20.2,22.2c0.8,1.5,1.1,2.9,1.8,4.4
	c1.4,3.2,3.1,6.4,4.4,9.5c1.2,3.1,2.7,6,4.6,8.7c1,1.4,4.9,2.1,6.6,2.8c1.5,0.5,3,1.1,4.4,1.7c2.2,1.4,4.4,2.9,6.5,4.4
	C244.6,69.5,247.9,71.1,248.1,72.4C248.1,72.4,248.1,72.4,248.1,72.4z M181.9,16c-0.9,0-1.8,0.1-2.7,0.3v0.1h0.1
	c0.6,0.9,1.3,1.8,2.1,2.7c0.5,1,1,2.1,1.5,3.1l0.1-0.1c1-0.8,1.5-2,1.4-3.2c-0.3-0.4-0.5-0.9-0.8-1.4C183.1,17,182.5,16.5,181.9,16
	L181.9,16L181.9,16z M112.6,120.9H137c2.7,0,5.3-0.5,7.8-1.6c3.7-1.7,5.4-4,5.4-6.9v-6.2c0-2.4-2-4.7-6-6.2
	c-2.3-0.8-4.7-1.2-7.2-1.2h-10.3c-3.4,0-5.1-1-5.5-3.3c-0.1-0.3-0.1-0.5-0.1-0.8v-3.8c0-0.2,0-0.5,0.1-0.7c0.4-1.8,1.4-2.2,4.3-2.5
	h25v-5.6h-23.8c-2.3-0.1-4.6,0.1-6.9,0.7c-5,1.6-7.2,4-7.2,8.4v4.9c0,3.8,4.3,7.1,11.6,7.9c0.8,0.1,1.6,0.1,2.5,0.1h8.8
	c0.3,0,0.6,0,0.9,0.1c2.7,0.3,3.8,0.7,4.6,1.7c0.4,0.4,0.7,1,0.6,1.6v4.9c-0.1,0.8-0.5,1.5-1.2,2c-1.1,0.8-2.3,1.2-3.6,1.2
	c-0.3,0-0.5,0.1-0.8,0.1h-23.4V120.9L112.6,120.9L112.6,120.9z M203.1,111.1c0,5.8,4.4,9,13,9.7c0.8,0.1,1.6,0.1,2.5,0.1h22.1v-5.6
	h-22.2c-4.9,0-6.8-1.2-6.8-4.2V81.9h-8.5L203.1,111.1L203.1,111.1L203.1,111.1z M155.6,111.3c0,4.7,2.7,7.5,8,9
	c1.6,0.4,3.3,0.6,4.9,0.6h9.1l6.8-0.4l6.8,6.1h9.8l-8.3-7.5c3.5-1.5,5-3.7,5-7.9V91.3c0-5.1-3.6-8.2-10.6-9.2
	c-0.8-0.1-1.6-0.1-2.4-0.1h-16c-0.7,0-1.5,0.1-2.3,0.1c-7.1,1-10.7,4.1-10.7,9.2L155.6,111.3L155.6,111.3L155.6,111.3z M164.8,110.9
	V91.8c0-2.6,2.5-4.2,6.2-4.2h12.8c3.3,0,5.5,1.2,6,3.4c0.1,0.3,0.1,0.5,0.1,0.8v19.3c0,0.3,0,0.6-0.1,0.8c-0.3,1.2-1.1,2.2-2.1,2.7
	l-6.2-5.6h-9.8l7,6.4H171c-3.4,0-5.6-1.3-6-3.6C164.9,111.5,164.8,111.2,164.8,110.9L164.8,110.9L164.8,110.9z M244.5,120.9v-4.7
	h-1.7v-1h4.5v1h-1.6v4.7H244.5L244.5,120.9z M254,120.9v-4.4l0,0l-1.6,4.4h-0.8l-1.6-4.4h-0.1v4.4h-1.1v-5.7h1.7l1.6,3.9l1.4-3.9
	h1.8v5.7H254L254,120.9z"/>
</svg>
