<?xml version="1.0" encoding="utf-8"?>
<!-- Generator: Adobe Illustrator 20.0.0, SVG Export Plug-In . SVG Version: 6.00 Build 0)  -->
<svg version="1.1" id="Layer_3" xmlns="http://www.w3.org/2000/svg" xmlns:xlink="http://www.w3.org/1999/xlink" x="0px" y="0px"
	 width="256px" height="57.8px" viewBox="0 0 256 57.8" style="enable-background:new 0 0 256 57.8;" xml:space="preserve">
<style type="text/css">
	.st0{fill:#FFFFFF;}
</style>
<title>intuit-quick</title>
<path class="st0" d="M88.8,48.9c2.1,0,4.2,0,6.4,0c0.6,0,0.8,0.1,0.8,0.8c0,0.5,0,1.1,0,1.6c0,0.5-0.1,0.6-0.6,0.6
	c-2.2,0-4.4,0-6.6,0h-7.6c-8,0.2-14.7-6.1-14.9-14.1c0-1.7,0.2-3.5,0.8-5.1c1.4-5.2,5.8-9,11.2-9.8c8.3-1.5,15.4,3.5,17,11.1
	C96.7,39.7,94.1,45.9,88.8,48.9z M92,37.5c0-1.1-0.1-2.2-0.3-3.2c-1-4-3.4-6.9-7.4-8.1c-3.8-1.3-7.9-0.3-10.8,2.5
	c-2.8,2.6-4.1,6.5-3.5,10.3c0.4,6.1,5.7,10.7,11.7,10.3S92.4,43.6,92,37.5L92,37.5z M174.1,36.8c3,0.5,5.1,1.9,6,4.6
	c1,2.5,0.5,5.4-1.4,7.4c-1.5,1.5-3.4,2.4-5.4,2.7c-2.3,0.3-4.5,0.5-6.8,0.4c-1.7,0-3.3,0-5,0c-0.4,0-0.5-0.1-0.5-0.5
	c0-9.2,0-18.3,0-27.5c0-0.5,0.2-0.6,0.6-0.6c2.7,0,5.4,0,8.2,0c1.8,0,3.5,0.3,5.2,0.9c3.4,1.3,5.1,5.1,3.7,8.5
	c-0.7,1.8-2.1,3.2-4,3.8L174.1,36.8z M164.3,43.5c0,1.5,0,3,0,4.6c0,0.4,0,0.5,0.5,0.5c1.9,0,3.9,0,5.8,0c1.4,0,2.7-0.4,3.9-1
	c2.3-1.2,3.1-4,1.9-6.3c-0.1-0.2-0.2-0.4-0.3-0.5c-1-1.3-2.6-2.2-4.3-2.2c-2.3-0.3-4.7-0.1-7-0.1c-0.4,0-0.4,0.2-0.4,0.5
	C164.3,40.5,164.3,42,164.3,43.5L164.3,43.5z M164.3,30.9c0,1.3,0,2.7,0,4c0,0.3,0,0.5,0.4,0.5c2.2,0.1,4.5,0,6.7-0.2
	c2.1-0.1,3.8-1.8,4-3.9c0.4-2.2-1.1-4.2-3.3-4.6c-0.3-0.1-0.7-0.1-1.1-0.2c-2.1-0.2-4.2-0.1-6.3-0.1c-0.4,0-0.4,0.1-0.4,0.5
	C164.3,28.2,164.3,29.5,164.3,30.9L164.3,30.9z M228.5,36.8c0-4.3,0-8.6,0-12.9c0-0.5-0.1-0.7-0.6-0.6s-1.1,0-1.7,0
	c-0.9,0-0.8-0.1-0.8,0.8c0,8.6,0,17.2,0,25.8c0,0.5,0,1,0,1.5c-0.1,0.2,0,0.4,0.2,0.4c0.1,0,0.1,0,0.2,0c0.7,0,1.4,0,2.2,0
	c0.5,0,0.6-0.2,0.6-0.6c0-2.9,0-5.7,0-8.6c-0.1-0.2,0-0.4,0.1-0.6l0.4,0.4c2.6,2.7,5.1,5.4,7.6,8.1c0.7,0.9,1.8,1.4,2.9,1.2
	c1-0.1,1.9-0.1,2.9,0l-0.5-0.6c-3-3.1-6-6.2-9-9.2c-0.3-0.3-0.4-0.5,0-0.9c2.7-2.5,5.4-5.1,8.1-7.6c0.2-0.1,0.4-0.3,0.5-0.6
	c-1.3,0-2.6,0-3.8,0c-0.4,0-0.7,0.1-1,0.4c-2.5,2.4-5,4.9-7.6,7.3c-0.1,0.2-0.3,0.4-0.6,0.4L228.5,36.8L228.5,36.8z M146.2,40.3
	V29.2c0-1.8,0-3.6,0-5.4c0-0.4-0.1-0.6-0.5-0.6c-0.6,0-1.3,0-1.9,0c-0.6,0-0.7,0.1-0.7,0.7c0,8.4,0,16.9,0,25.3c0,0.6,0,1.2,0,1.8
	s0.1,0.7,0.6,0.6c0.6,0,1.3,0,1.9,0c0.5,0,0.6-0.1,0.6-0.6c0-2.8,0-5.7,0-8.5c0-0.2,0-0.4,0.1-0.6c0.2,0.1,0.4,0.2,0.5,0.4l8.4,8.9
	c0.1,0.2,0.3,0.4,0.6,0.4h4.3c0-0.2-0.2-0.4-0.4-0.5c-3-3.1-6.1-6.2-9.1-9.3c-0.4-0.4-0.4-0.6,0-0.9c2.7-2.5,5.4-5.1,8.1-7.6
	c0.2-0.1,0.4-0.3,0.4-0.5c-1.3,0-2.5,0-3.8,0c-0.4,0-0.7,0.1-0.9,0.4c-2.5,2.4-5,4.9-7.5,7.3c-0.2,0.2-0.4,0.4-0.7,0.5L146.2,40.3
	L146.2,40.3z M182,42.3c0-5.8,4.2-9.9,10.1-9.9s10,4.1,10.1,9.9s-4.1,9.9-10,10c-5.3,0.3-9.9-3.8-10.2-9.1
	C181.9,42.9,181.9,42.6,182,42.3L182,42.3z M198.7,42.3c0.2-3.6-2.5-6.8-6.1-7c-0.9-0.1-1.8,0.1-2.7,0.4c-2.8,0.9-4.2,3-4.5,5.9
	c-0.5,5.3,3.7,8.6,8.4,7.5C196.8,48.4,198.7,45.7,198.7,42.3L198.7,42.3z M213.7,32.5c5,0,8.8,2.9,9.8,7.6
	c1.2,5.9-2.1,11.2-8.1,12.1c-5.3,0.8-10.1-1.8-11.4-6.9c-1.5-5.6,1.4-11.2,7.2-12.5C212,32.5,212.8,32.4,213.7,32.5L213.7,32.5z
	 M207,42.3c-0.2,3.6,2.5,6.8,6.2,7c0.9,0.1,1.8-0.1,2.7-0.4c2.9-0.9,4.3-3.2,4.5-6.2c0.4-3.7-2.2-7-5.8-7.5c-0.8-0.1-1.7,0-2.5,0.2
	C208.9,36.2,206.9,38.9,207,42.3L207,42.3z M112.1,51.3c0,0.4,0.1,0.5,0.6,0.5c0.7,0,1.3,0,2,0c0.4,0,0.5-0.1,0.5-0.5
	c-0.1-0.8-0.1-1.5-0.1-2.3c0-3.6,0-7.1,0-10.6c0-1.6,0-3.2,0-4.8c0-0.5-0.1-0.6-0.6-0.6c-0.6,0-1.3,0-1.9,0c-0.5,0-0.7,0.1-0.7,0.6
	c0,2.8,0,5.5,0,8.2c0,1-0.1,1.9-0.3,2.8c-0.6,2.9-2.3,4.5-5.2,4.7c-2.1,0.4-4.1-1.1-4.4-3.2c0,0,0,0,0,0c-0.2-0.7-0.2-1.4-0.2-2.1
	c0-3.5,0-6.9,0-10.4c0-0.6-0.2-0.7-0.7-0.7c-0.6,0-1.2,0-1.8,0c-0.5,0-0.7,0.1-0.6,0.6c0,2.5,0,4.9,0,7.4c-0.1,1.7,0,3.4,0.1,5.1
	c0.3,2.5,1.3,4.5,3.7,5.5c3.2,1.4,7.6,0.6,9.5-2.7c0.1-0.1,0.2-0.1,0.2-0.2C112.1,49.6,112.1,50.5,112.1,51.3L112.1,51.3z
	 M253.6,50.9c1.8-1.1,2.7-3.2,2.4-5.3c-0.1-1.9-1.4-3.5-3.2-4.1c-1-0.4-2.1-0.7-3.2-0.9c-1.2-0.2-2.4-0.6-3.4-1.2
	c-0.9-0.5-1.2-1.5-0.8-2.4c0.1-0.2,0.2-0.4,0.4-0.5c0.3-0.4,0.8-0.7,1.2-0.8c2-0.9,4.3-0.2,5.6,1.6c0.2,0.3,0.3,0.3,0.6,0.1
	c0.6-0.4,1.2-0.8,1.9-1.2c0.3-0.2,0.4-0.3,0.2-0.7c-0.5-0.8-1.1-1.4-1.9-1.9c-3-1.6-6.6-1.4-9.4,0.5c-2.7,2-2.8,6.8,0.8,8.3
	c1.2,0.5,2.4,0.8,3.6,1.1c1,0.2,2,0.5,2.9,0.9c1.2,0.6,1.7,2,1.2,3.2c-0.2,0.5-0.6,0.9-1.1,1.1c-0.4,0.2-0.7,0.4-1.2,0.5
	c-2.2,0.7-4.7,0-6.1-1.9c-0.3-0.4-0.6-0.4-0.9-0.1c-0.5,0.4-1,0.8-1.5,1.2c-0.5,0.3-0.4,0.5-0.1,0.9c1.6,2,4,3.1,6.6,3
	C250,52.4,252,51.9,253.6,50.9L253.6,50.9z M129.8,33.2c-4.4,1.9-6.3,6.5-5.5,11.1c0.9,4.8,4.2,7.7,9.2,7.9c2.6,0.2,5.2-0.7,7.1-2.6
	c0.3-0.3,0.4-0.5,0-0.8c-0.6-0.5-1.1-1-1.6-1.5c-0.3-0.3-0.4-0.2-0.7,0c-2.2,2.5-6.1,2.7-8.6,0.4c-0.2-0.2-0.4-0.4-0.6-0.6
	c-1.5-1.9-2.1-4.3-1.5-6.7c0.5-2.6,2-4.5,4.7-5c2.1-0.5,4.4,0.2,5.9,1.8c0.3,0.3,0.4,0.3,0.7,0c0.6-0.5,1.1-1,1.7-1.5
	c0.4-0.3,0.4-0.5,0-0.8c-1.8-1.7-4.2-2.6-6.6-2.6C132.6,32.4,131.2,32.7,129.8,33.2z M118.3,51.2c0,0.4,0.1,0.6,0.6,0.6
	c0.6,0,1.3,0,1.9,0c0.5,0,0.7-0.1,0.7-0.7c0-2.6,0-5.3,0-7.9c0-3.2,0-6.4,0-9.6c0-0.5-0.1-0.7-0.6-0.6c-0.6,0-1.3,0-1.9,0
	c-0.5,0-0.6,0.1-0.6,0.6c0,3,0,5.9,0,8.9S118.3,48.3,118.3,51.2L118.3,51.2z M72.9,11.4c0-1.7,0-3.3,0-4.9c0-0.8,0.1-0.9,0.9-0.9
	c0.3,0,0.6,0,1,0c0.5,0,1,0,1,0.7c0,0.4,0.2,0.2,0.4,0.1c0.8-0.5,1.8-0.9,2.8-1c2.8-0.3,4.5,1,4.6,3.8c0.1,2.5,0,5,0,7.5
	c0.1,0.3-0.2,0.6-0.5,0.7c-0.1,0-0.1,0-0.2,0c-0.5,0-1,0-1.5,0c-0.4,0.1-0.7-0.2-0.8-0.5c0-0.1,0-0.2,0-0.3c0-2,0-4.1,0-6.1
	c0-0.3,0-0.5,0-0.8c0.1-1-0.7-1.8-1.7-1.9c-0.3,0-0.5,0-0.8,0.1C78,8,77.8,8,77.6,8.1c-1.5,0.5-1.7,0.7-1.7,2.3c0,2,0,4,0,6.1
	c0,0.8-0.1,0.9-0.9,0.9h-1.2c-0.8,0-0.9-0.1-0.9-0.9C72.9,14.8,72.9,13.1,72.9,11.4z M105.3,17.4c0.3,0,0.6,0,1,0
	c0.4,0.1,0.7-0.1,0.8-0.5c0-0.1,0-0.2,0-0.3c0-1.2,0-2.5,0-3.7c0-2.2,0-4.3,0-6.5c0.1-0.3-0.1-0.7-0.5-0.8c-0.1,0-0.2,0-0.3,0
	c-0.4,0-0.8,0-1.3,0c-0.8,0-0.9,0-0.9,0.9c0,2.3,0,4.6,0,6.8c0.1,0.3,0,0.6-0.2,0.8c-0.8,0.7-1.8,1-2.9,1c-0.7,0-1.3-0.6-1.4-1.3
	c-0.1-0.4-0.1-0.9-0.1-1.3c0-2,0-4.1,0-6.1c0.1-0.3-0.1-0.7-0.4-0.7c-0.1,0-0.2,0-0.3,0c-0.5,0-1.1,0-1.6,0c-0.3,0-0.6,0.2-0.6,0.5
	c0,0.1,0,0.1,0,0.2c0,2.6-0.1,5.2,0,7.7s1.6,3.8,4.1,3.7c1.3-0.1,2.5-0.5,3.5-1.3C104.4,17.3,104.4,17.4,105.3,17.4L105.3,17.4z
	 M118.4,15.4c0,2.2-0.2,1.9,1.9,1.9c1,0,1.1-0.1,1.1-1c0-2.5,0-5.1,0-7.6c0-0.5,0.1-0.6,0.6-0.6c0.7,0,1.4,0,2.1,0
	c0.3,0.1,0.6-0.1,0.6-0.4c0-0.1,0-0.1,0-0.2c0-0.5,0-1,0-1.5c0-0.3-0.1-0.5-0.4-0.5c-0.1,0-0.1,0-0.2,0h-8.5
	c-0.2-0.1-0.5,0.1-0.5,0.4c0,0.1,0,0.1,0,0.2c0,0.5,0,1,0,1.5c-0.1,0.3,0.1,0.6,0.4,0.6c0.1,0,0.1,0,0.2,0c0.7,0,1.4,0,2.2,0
	c0.4,0,0.5,0.1,0.5,0.5c0,1.3,0,2.6,0,3.9C118.4,13.6,118.4,14.5,118.4,15.4L118.4,15.4z M86.8,5.6c-1.9,0-1.9,0-1.8,1.9
	c-0.1,0.3,0.1,0.6,0.4,0.7c0.1,0,0.2,0,0.3,0c0.6,0,1.3,0,1.9,0s0.7,0.1,0.7,0.7c0,2.6,0,5.2,0,7.7c-0.1,0.4,0.1,0.7,0.5,0.8
	c0.1,0,0.2,0,0.3,0c0.4,0,0.8,0,1.2,0c0.8,0,0.9-0.1,0.9-1c0-2.6,0-5.1,0-7.7c0-0.5,0.2-0.7,0.6-0.6c0.7,0,1.3,0,2,0
	c0.3,0.1,0.6-0.1,0.7-0.4c0-0.1,0-0.2,0-0.3c0-0.4,0-0.8,0-1.2c0-0.5-0.2-0.7-0.7-0.7c-1.3,0-2.7,0-4.1,0L86.8,5.6L86.8,5.6z
	 M69.9,6.3C70,6,69.8,5.6,69.5,5.5c-0.1,0-0.2,0-0.3,0c-0.5,0-1.1,0-1.6,0c-0.3-0.1-0.6,0.1-0.7,0.4c0,0.1,0,0.2,0,0.2
	c0,3.5,0,7,0,10.5c0,0.3,0.2,0.6,0.5,0.7c0.1,0,0.1,0,0.2,0h1.3c0.8,0,1-0.1,1-0.9c0-1.7,0-3.3,0-4.9S69.9,8,69.9,6.3L69.9,6.3z
	 M110.1,16.6c-0.1,0.4,0.1,0.7,0.5,0.8c0.1,0,0.2,0,0.3,0c0.5,0,1,0,1.5,0c0.3,0,0.6-0.2,0.7-0.5c0-0.1,0-0.1,0-0.2
	c0-3.5,0-7,0-10.5c0.1-0.3-0.1-0.6-0.4-0.6c-0.1,0-0.2,0-0.3,0c-0.5,0-1,0-1.5,0c-0.6-0.1-0.8,0.2-0.8,0.8c0,1.7,0,3.3,0,5
	S110.2,14.9,110.1,16.6L110.1,16.6z M89.8,0.5c-1,0-1.8,0.8-1.8,1.8c0,1,0.8,1.7,1.8,1.8c1,0,1.8-0.8,1.8-1.8c0,0,0,0,0,0
	C91.6,1.2,90.8,0.5,89.8,0.5z M119.9,4c1,0,1.8-0.8,1.8-1.8c0-1-0.8-1.8-1.7-1.8s-1.8,0.8-1.8,1.7C118.1,3.2,118.9,4,119.9,4
	C119.9,4,119.9,4,119.9,4L119.9,4z M57.8,28.8c0,15.9-12.9,28.9-28.9,28.9C12.9,57.8,0,44.9,0,28.9C0,13,12.8,0.1,28.8,0
	c15.9-0.1,28.9,12.8,29,28.7C57.7,28.8,57.7,28.8,57.8,28.8z M27.6,45.3c0-4.6,0-9.1,0-13.6s0-9.1,0-13.7c0-0.5-0.1-0.6-0.6-0.6
	c-2.5,0-5,0-7.6,0c-6.4,0.3-11.3,5.7-10.9,12.1c0.3,6.4,5.7,11.3,12.1,10.9c0.2,0.1,0.4,0,0.4-0.2c0,0,0-0.1,0-0.1
	c0-0.8,0-1.6,0-2.5c0-1.1,0-1.1-1.1-1.2c-4.1-0.1-7.4-3.4-7.3-7.6c0.1-3.5,2.5-6.5,5.9-7.2c1.4-0.2,2.9-0.2,4.3-0.2
	c0.6,0,0.8,0.2,0.8,0.8c0,7.7,0,15.4,0,23c0,0.5,0.1,0.8,0.7,0.7c0.9-0.1,1.8-0.1,2.7,0C27.4,46,27.6,45.8,27.6,45.3z M49.3,28.7
	c-0.1-6.4-5.3-11.5-11.6-11.4c-0.2,0-0.3,0-0.5,0c-0.4,0-0.5,0.1-0.5,0.5c0,0.7,0,1.4,0,2.2c0,1.4,0,1.4,1.3,1.4
	c4.1,0.2,7.3,3.6,7.1,7.8c-0.1,3.3-2.4,6.1-5.6,6.9c-1.3,0.2-2.7,0.3-4,0.2c-1.5,0-1.5,0-1.5-1.5c0-7.5,0-14.9,0-22.4
	c0-0.5-0.1-0.7-0.7-0.7c-0.9,0-1.9,0-2.8,0c-0.5,0-0.6,0.2-0.6,0.6c0,4.6,0,9.1,0,13.6s0,9.1,0,13.7c0,0.4,0.1,0.6,0.6,0.6
	c2.4,0,4.8,0,7.2,0C44.2,40.3,49.3,35.2,49.3,28.7C49.3,28.8,49.3,28.8,49.3,28.7L49.3,28.7z"/>
</svg>
