<?xml version="1.0" encoding="utf-8"?>
<!-- Generator: Adobe Illustrator 20.0.0, SVG Export Plug-In . SVG Version: 6.00 Build 0)  -->
<svg version="1.1" id="Layer_1" xmlns="http://www.w3.org/2000/svg" xmlns:xlink="http://www.w3.org/1999/xlink" x="0px" y="0px"
	 width="255.7px" height="183.5px" viewBox="0 0 255.7 183.5" style="enable-background:new 0 0 255.7 183.5;" xml:space="preserve"
	>
<style type="text/css">
	.st0{fill:#FFFFFF;}
</style>
<title>salesforce</title>
<path class="st0" d="M214.6,26.8c-11.6-3.2-24-2.4-35,2.4c-0.6,0.4-1.4,0.3-1.8-0.3c-0.1-0.1-0.2-0.2-0.2-0.4
	c-7.2-12-17.5-19.7-31.1-22.1c-14.9-2.6-28,1.8-39,12.5c-0.9,0.9-1.2,0.8-2-0.2C97.1,8.4,86.3,2.2,73.1,0.5
	c-0.8-0.1-1.7,0.1-2.3-0.5h-7.8c-1.2,0.7-2.6,0.5-3.9,0.7c-19.8,3-36.8,19.5-40.7,39.7c-2,9.9-1.1,20.2,2.6,29.6
	c0.4,0.5,0.2,1.3-0.3,1.6c-0.1,0.1-0.2,0.1-0.3,0.1C10.8,77.9,4,87.5,1.4,98.6c-0.5,2.1-0.9,4.2-1.1,6.3c0.1,0.3,0,0.6-0.3,0.8v7.7
	c0.7,1.1,0.5,2.4,0.7,3.6c3,18,16.1,32.1,33.4,35.8c5.3,1.2,10.9,1.2,16.2,0.2c0.6-0.2,1.2,0,1.5,0.6c0,0.1,0.1,0.1,0.1,0.2
	c6.3,15.3,17.4,24.9,33.2,28.8c1.4,0.4,3,0.3,4.4,0.9h10.1c1.6-0.6,3.3-0.6,5-1c14.7-3.6,25.3-12.4,31.8-26.3c0.5-1,0.8-1.2,1.9-0.7
	c18.4,8.6,40.4,1.5,50.9-16.5c0.3-0.7,1.1-1.1,1.8-0.8c28.9,5.2,56.6-13.5,63.3-43C261.2,64.3,243.3,34.6,214.6,26.8z M50.7,97.7
	c-4.6,1.8-9,0.9-13.2-1.6c-0.4-0.2-0.6-0.6-0.4-1c0,0,0-0.1,0-0.1c0,0,0-0.1,0-0.1c0.8-3.1,0.8-3.1,3.6-1.6c2,1.1,4.4,1.6,6.7,1.2
	c1.4-0.1,2.5-1.2,2.6-2.5c0.1-1.5-0.9-2.1-2-2.6s-2.5-0.9-3.7-1.3c-1.1-0.3-2.1-0.7-3.2-1.2c-2.1-1-3.5-3.1-3.5-5.4
	c-0.2-2.6,1.1-5,3.4-6.3c1.5-0.9,3.3-1.3,5-1.2c2.5-0.1,5,0.5,7.2,1.7c0.6,0.2,0.9,0.9,0.7,1.5c0,0.1-0.1,0.2-0.1,0.2
	c-0.9,2.5-0.9,2.6-3.3,1.7c-1.3-0.5-2.7-0.8-4.2-0.9c-0.8-0.1-1.6,0-2.3,0.2c-1,0.3-1.6,1.1-1.8,2.1c-0.1,1,0.5,1.9,1.3,2.2
	c1.2,0.6,2.4,1.1,3.7,1.5c1.2,0.4,2.5,0.9,3.6,1.4c2.4,1.3,3.8,3.1,3.7,6S53.4,96.7,50.7,97.7z M76.7,88.5c0,2.8,0,5.1,0,7.4
	c0.2,0.5-0.1,1.1-0.6,1.3c0,0-0.1,0-0.1,0c-3.7,1-7.5,1.4-11.3,1.1c-4.4-0.5-6.9-2.9-7.1-6.9c-0.2-4.2,2.2-7.3,6.6-8.2
	c2.2-0.4,4.5-0.5,6.7-0.1c0.9,0.1,1.1-0.1,1.1-1c-0.1-2.4-1.1-3.7-3.5-4c-2.5-0.3-5.1,0.1-7.3,1.2c-0.9,0.4-1.2,0.2-1.5-0.6
	c-1.1-3-1.1-3.1,1.9-4c3.1-1.1,6.5-1.2,9.7-0.4c2.9,0.7,5.1,3.2,5.3,6.2C76.9,83.3,76.5,86.2,76.7,88.5L76.7,88.5z M84.8,98
	c-3.4-0.1-3.4,0-3.4-3.5V81.3c0-5.1,0-10.2,0-15.3c0-1.1,0.3-1.4,1.4-1.4c3.5,0,3.5,0,3.5,3.6c0,9.4,0,18.8,0,28.3
	C86.3,97.6,86.1,98,84.8,98L84.8,98z M110.8,86.7c0,0.5-0.3,0.8-0.8,0.8c-0.1,0-0.1,0-0.2,0c-2.2,0-4.4,0-6.6,0s-4.4,0-6.6,0
	c-0.8,0-1,0.3-0.9,1.1c0.3,3.2,2.2,5.2,5.3,5.6c2.3,0.3,4.6,0.1,6.8-0.8c0.8-0.3,1.2-0.3,1.5,0.7c1.1,3,1.1,3.1-2.1,3.9
	c-2.8,0.7-5.7,0.8-8.5,0.2c-3.9-0.7-7-3.7-7.8-7.6c-1-3.5-0.7-7.3,0.7-10.6c1.8-4,5-5.9,9.2-6c3.8-0.1,6.9,1.2,8.8,4.8
	C110.8,81.2,111.2,83.9,110.8,86.7L110.8,86.7z M117.6,97.7c-1.1-0.4-2.2-0.9-3.2-1.5c-0.5-0.2-0.7-0.8-0.5-1.3
	c0.9-3.1,0.8-3.1,3.7-1.7c2,1.1,4.4,1.6,6.7,1.2c1.3-0.1,2.4-1.1,2.6-2.4c0.2-1.2-0.4-2.1-2-2.7c-1.2-0.5-2.4-0.8-3.6-1.3
	s-2.1-0.7-3.2-1.2c-2.2-0.9-3.6-3-3.7-5.3c-0.2-2.5,1-5,3.2-6.3c1.6-1,3.5-1.5,5.3-1.3c2.5-0.1,4.9,0.5,7.2,1.7
	c0.6,0.2,0.9,0.8,0.8,1.4c0,0.1-0.1,0.2-0.1,0.2c-0.9,2.6-0.9,2.6-3.3,1.7c-1.5-0.6-3-0.9-4.6-1c-0.8-0.1-1.7,0.1-2.4,0.5
	c-1.1,0.5-1.6,1.8-1.2,2.9c0.2,0.5,0.5,0.8,1,1.1c1.2,0.7,2.6,1.3,4,1.6c1.2,0.4,2.5,0.9,3.6,1.4c2.5,1.3,3.9,3.3,3.7,6.3
	c0,2.8-1.8,5.2-4.4,6.1C124.1,99,120.7,98.9,117.6,97.7L117.6,97.7z M149.1,77.3c0,0.6-0.5,1.2-1.1,1.2c-0.1,0-0.2,0-0.4,0
	c-0.5,0-1,0-1.4,0c-2.6,0-2.6,0-3.1,2.6c-1.1,6.2-2.1,12.3-3.2,18.5c-0.3,1.6-0.8,3.2-1.5,4.7c-2,4-6.7,5.8-10.9,4.2
	c-0.4-0.1-0.7-0.5-0.6-0.9c0-0.1,0-0.2,0.1-0.2c0.1-0.3,0.2-0.6,0.3-0.9c0.7-2,0.7-2,2.8-1.8c2.3,0.2,3.5-0.5,4.3-2.8
	c1.1-2.9,1.4-6,1.9-9.1c0.8-4.4,1.5-8.8,2.3-13.1c0.2-1-0.1-1.2-1-1.2c-2.6,0-2.6,0-2.2-2.7c0.1-1.1,0.5-1.5,1.6-1.5
	c2.3,0.1,2.3,0,2.9-2.4c0.9-3.6,2.4-6.6,6.3-7.5c1.8-0.4,3.7-0.4,5.5,0c0.9,0.2,1.1,0.6,0.7,1.4c-0.1,0.1-0.1,0.2-0.1,0.4
	c-0.2,0.8-0.5,1.5-0.9,2.2c-0.6,0.7-1.4-0.1-2.2-0.1c-2.4-0.1-3.8,1-4.5,3.7c-0.6,2.3-0.6,2.3,1.7,2.3h0.2
	C149.7,74.4,149.7,74.4,149.1,77.3L149.1,77.3z M170.9,90.1c-1.2,5.4-4.9,8.4-10.3,8.4s-9.2-3.1-10.4-8.7c-0.5-2.6-0.5-5.3,0.2-7.9
	c1.3-5.3,5.4-8.3,10.9-8c5.2,0.3,8.9,3.8,9.8,9.3C171.5,85.5,171.4,87.8,170.9,90.1L170.9,90.1z M188.8,75.9
	c-0.1,0.1-0.1,0.2-0.1,0.4c-0.8,2.4-0.8,2.4-3.2,2.4c-2.4-0.1-4.5,1.6-5,4c-0.3,1.4-0.4,2.8-0.4,4.2c0,3.3,0,6.6,0,9.9
	c0.2,0.5-0.1,1.1-0.6,1.3c-0.2,0.1-0.4,0.1-0.6,0c-3.6,0-3.6,0-3.6-3.6c0-6.2,0-12.4,0-18.7c0-1.1,0.3-1.6,1.4-1.4
	c0.4,0,0.8,0,1.2,0c2,0,2,0,2.4,2c2.1-2,5.1-2.8,7.9-2C188.9,74.6,189.2,75,188.8,75.9L188.8,75.9z M204.7,98.2
	c-1.7,0.4-3.5,0.4-5.3,0.2c-5.3-0.5-9-4.2-9.6-9.9c-0.1-0.8-0.1-1.5-0.1-1.9c-0.1-2.2,0.3-4.3,1.1-6.3c1.3-3.3,4.2-5.6,7.6-6.2
	c2.7-0.5,5.6-0.3,8.2,0.5c0.5,0,0.8,0.4,0.8,0.9c0,0.2-0.1,0.3-0.1,0.4c-0.9,2.8-0.9,2.8-3.6,2.3c-0.9-0.1-1.7-0.2-2.6-0.2
	c-2.7-0.1-5.2,1.7-5.8,4.4c-0.8,2.4-0.8,4.9,0,7.3c0.6,2.4,2.7,4.1,5.1,4.3c1.7,0.3,3.5,0.1,5.1-0.5c0.4-0.3,0.9-0.2,1.2,0.2
	c0.1,0.1,0.1,0.3,0.2,0.4C207.9,97.6,208.8,97.2,204.7,98.2z M229.5,86.8c-0.1,0.8-0.6,0.7-1.1,0.7h-6.6c-2.2,0-4.3,0-6.5,0
	c-0.9,0-1,0.3-0.9,1.1c0.3,3.2,2.2,5.2,5.3,5.6c2.3,0.3,4.6,0.1,6.8-0.8c0.9-0.4,1.3-0.1,1.6,0.8c1,3,1.1,3-2,3.7
	c-2.7,0.7-5.4,0.8-8.1,0.3c-4.8-0.9-7.6-3.9-8.5-8.8c-0.5-2.9-0.3-5.8,0.6-8.6c2.4-7,11.7-9.5,16.8-4.3
	C229.5,79.4,229.8,83,229.5,86.8L229.5,86.8z M71.8,87.9c0,0.9,0,1.8,0,2.7c0,0.3,0,0.6,0,0.9c0,2.6,0,2.6-2.5,2.9
	c-1.5,0.2-3,0.2-4.5-0.2c-1.4-0.3-2.5-1.5-2.5-3c-0.3-1.6,0.6-3.2,2.1-3.8c2.2-1,4.6-0.6,6.9-0.4C71.8,87.1,71.9,87.5,71.8,87.9z
	 M106.1,83c0,0.7-0.3,0.7-0.8,0.7h-8.8c-0.5,0-0.8,0-0.8-0.7c0.2-2.7,2.3-4.8,5-5.1c2.8-0.1,5.2,2,5.4,4.8
	C106.1,82.8,106.1,82.9,106.1,83L106.1,83z M224.7,83c0,0.7-0.3,0.7-0.8,0.7h-4.4c-1.4,0-2.9-0.1-4.3,0c-0.9,0-1-0.3-0.8-1.1
	c0.8-3.4,3.1-5.2,6.3-4.6C223.1,78.6,224.7,80.6,224.7,83L224.7,83z M165.4,81.2c0.6,1.6,0.9,3.3,0.8,5c0.1,1.7-0.2,3.5-0.9,5.1
	c-0.7,2-2.7,3.3-4.8,3.1c-2.1,0.1-4-1.2-4.6-3.1c-1.2-3.2-1.2-6.8,0-10c0.7-2,2.6-3.4,4.8-3.2C162.7,77.9,164.7,79.2,165.4,81.2
	L165.4,81.2z"/>
</svg>
