<?xml version="1.0" encoding="utf-8"?>
<!-- Generator: Adobe Illustrator 20.0.0, SVG Export Plug-In . SVG Version: 6.00 Build 0)  -->
<svg version="1.1" id="Layer_1" xmlns="http://www.w3.org/2000/svg" xmlns:xlink="http://www.w3.org/1999/xlink" x="0px" y="0px"
	 width="255.1px" height="207.3px" viewBox="0 0 255.1 207.3" style="enable-background:new 0 0 255.1 207.3;" xml:space="preserve"
	>
<style type="text/css">
	.st0{fill:#FFFFFF;}
</style>
<title>twitter</title>
<path class="st0" d="M255.1,24.6c-7,10.5-15.9,19.7-26.1,27.1c0.1,2.2,0.1,4.5,0.1,6.8c0,69.2-52.6,148.9-148.9,148.9
	c-28.5,0-56.3-8.2-80.2-23.5c4.1,0.5,8.3,0.7,12.5,0.7c23.6,0,46.5-7.9,65-22.4c-22.4-0.4-42.1-15-48.9-36.3
	c3.2,0.6,6.5,0.9,9.8,0.9c4.7,0,9.3-0.6,13.8-1.8c-24.4-4.9-42-26.4-42-51.3v-0.6c7.3,4,15.4,6.3,23.8,6.5
	C11,64.1,3.9,33.5,17.8,9.6c26.6,32.7,65.8,52.6,107.9,54.7c-6.6-28.2,10.9-56.3,39.1-62.9c18.2-4.2,37.3,1.5,50.1,15.2
	c11.7-2.3,23-6.6,33.2-12.7c-3.9,12.1-12.1,22.4-23,29C235.5,31.6,245.6,28.8,255.1,24.6"/>
</svg>
